<svg xmlns="http://www.w3.org/2000/svg" viewBox="0 0 240 220"><rect width="240" height="220" rx="18" fill="#f6f8f7"/><g stroke="#315e69" stroke-width="3" stroke-linejoin="round" stroke-linecap="round"><path d="M29 183h182" stroke="#c0ac85"/><path d="M65 30l7 99q-4 20-24 29-10 4-7 14 4 11 19 10l37-2q11-2 9-19l-13-131" fill="#b78361"/><path d="M133 30l7 98q-1 21-14 30-9 8-3 17 8 11 28 8l36-4q11-4 3-18l-26-131" fill="#b78361"/><path d="M52 165l-2 14m12-16-2 16m12-16-2 16m60-14 3 17m7-18 4 17m7-19 5 17" stroke="#815b43" stroke-width="2"/><g fill="#b6a180" stroke="none"><circle cx="29" cy="197" r="3"/><circle cx="111" cy="194" r="3"/><circle cx="208" cy="195" r="3"/></g></g></svg>