<svg xmlns="http://www.w3.org/2000/svg" viewBox="0 0 240 220"><rect width="240" height="220" rx="18" fill="#f6f8f7"/><g stroke="#315e69" stroke-width="3" stroke-linejoin="round" stroke-linecap="round"><g transform="translate(4 27) scale(0.72)"><path d="M12 111v-18c0-21 18-31 32-34h22c16 3 33 15 33 34v18Z" fill="#315e69"/><path d="M45 48v15q10 10 20 0V48" fill="#936044" stroke="none"/><ellipse cx="55" cy="33" rx="22" ry="27" fill="#b78361" stroke="none"/><path d="M33 31Q27 1 55 3q29 0 23 31l-7-15q-19 11-32 1Z" fill="#3d302b" stroke="none"/><path d="M45 38h2m16 0h2" stroke="#3d302b" stroke-width="3"/><path d="M52 49h7" stroke="#75503b" stroke-width="2"/><path d="M34 91v20m44-20v20" stroke="#b6d0ce" stroke-width="2"/></g><g transform="translate(80 27) scale(0.72)"><path d="M12 111v-18c0-21 18-31 32-34h22c16 3 33 15 33 34v18Z" fill="#a33650"/><path d="M45 48v15q10 10 20 0V48" fill="#936044" stroke="none"/><ellipse cx="55" cy="33" rx="22" ry="27" fill="#b78361" stroke="none"/><path d="M33 31Q27 1 55 3q29 0 23 31l-7-15q-19 11-32 1Z" fill="#3d302b" stroke="none"/><path d="M45 38h2m16 0h2" stroke="#3d302b" stroke-width="3"/><path d="M52 49h7" stroke="#75503b" stroke-width="2"/><path d="M34 91v20m44-20v20" stroke="#b6d0ce" stroke-width="2"/></g><g transform="translate(157 27) scale(0.72)"><path d="M12 111v-18c0-21 18-31 32-34h22c16 3 33 15 33 34v18Z" fill="#315e69"/><path d="M45 48v15q10 10 20 0V48" fill="#936044" stroke="none"/><ellipse cx="55" cy="33" rx="22" ry="27" fill="#b78361" stroke="none"/><path d="M33 31Q27 1 55 3q29 0 23 31l-7-15q-19 11-32 1Z" fill="#3d302b" stroke="none"/><path d="M45 38h2m16 0h2" stroke="#3d302b" stroke-width="3"/><path d="M52 49h7" stroke="#75503b" stroke-width="2"/><path d="M34 91v20m44-20v20" stroke="#b6d0ce" stroke-width="2"/></g><path d="M76 139h88v26q-44 42-88 0Z" fill="white"/><path d="M76 145q-24-12-24 8t24 12m88-20q24-12 24 8t-24 12M89 151h62m-62 12h62" fill="none" stroke="#8daeb4"/><path d="M81 188l79-58" stroke="#a33650" stroke-width="6"/></g></svg>