<svg xmlns="http://www.w3.org/2000/svg" viewBox="0 0 240 220"><rect width="240" height="220" rx="18" fill="#f6f8f7"/><g stroke="#315e69" stroke-width="3" stroke-linejoin="round" stroke-linecap="round"><g transform="translate(-9 -1) scale(.64)"><g><path d="M52 72Q26 63 20 44q31-8 47 9m105 19q26-9 32-28-31-8-47 9" fill="#d3baa0"/><path d="M65 56Q53 42 58 24m100 32q12-14 7-32" fill="none" stroke="#968879" stroke-width="7"/><path d="M65 46q46-15 94 0l-8 91q-39 40-78 0Z" fill="#e6d5bf"/><path d="M122 47q-17 10-9 35l36 11 5-44" fill="#ab8a6d" stroke="none"/><ellipse cx="112" cy="137" rx="45" ry="27" fill="#c6997c"/><ellipse cx="83" cy="88" rx="4" ry="6" fill="#38322d" stroke="none"/><ellipse cx="142" cy="88" rx="4" ry="6" fill="#38322d" stroke="none"/><ellipse cx="95" cy="137" rx="4" ry="7" fill="#755341" stroke="none"/><ellipse cx="129" cy="137" rx="4" ry="7" fill="#755341" stroke="none"/></g></g><path d="M162 40q17 10 39 0l-3 31 15 21-19 12 5 34q-30-14-58 0l7-34-17-12 15-21Z" fill="#d0ac82"/><path d="M42 151q7-29 31-18 19-13 31 3 24-2 24 24 19 19-1 30H49q-26-5-7-39Z" fill="#e9e3d7" stroke="#a99a85"/><path d="M52 158q-7-11 5-14m19 7q-7-11 5-14m16 21q-7-11 5-14m-49 35q-7-11 5-14m24 11q-7-11 5-14" stroke="#b3a48e" fill="none"/></g></svg>