<svg xmlns="http://www.w3.org/2000/svg" viewBox="0 0 160 160" role="img"><title>Olho com vermelhidão</title><g stroke="#563e38" stroke-width="3.5" stroke-linecap="round" stroke-linejoin="round"><path d="M12 80Q43 38 80 42q37-4 68 38-32 37-68 38-37-1-68-38Z" fill="#fff5ef"/><path d="M22 79l17-5 8 8m-14-6 1-10m103 12-17-6-9 10m16-8-1-10M34 96l12-9m78 10-12-10" fill="none" stroke="#b62e49" stroke-width="3"/><circle cx="80" cy="80" r="25" fill="#93613c"/><circle cx="80" cy="80" r="12" fill="#302f2c" stroke="none"/><circle cx="86" cy="72" r="5" fill="white" stroke="none"/><path d="M18 63q62-61 124 0M28 115q52 32 104 0" fill="none" stroke="#ac7556" stroke-width="5"/></g></svg>