<svg xmlns="http://www.w3.org/2000/svg" viewBox="0 0 160 160" role="img"><title>Pessoa com erupção cutânea</title><g stroke="#563e38" stroke-width="3.5" stroke-linecap="round" stroke-linejoin="round"><path d="M27 146v-24q0-22 34-30h38q34 8 34 30v24Z" fill="#b87950"/><path d="M66 82v17q14 11 28 0V82" fill="#b87950"/><ellipse cx="80" cy="55" rx="29" ry="36" fill="#c58a5d"/><path d="M51 51q-6-35 28-36 34 1 31 34L99 35q-27 13-44-2Z" fill="#3b302d"/><path d="M67 57h3m20 0h3m-19 18h12" fill="none"/><path d="M47 122v24m66-24v24" fill="none" stroke="#925639"/><g fill="#ae2946" stroke="#e7a496" stroke-width="1.4"><circle cx="60" cy="66" r="4.5"/><circle cx="98" cy="67" r="4.5"/><circle cx="55" cy="113" r="5"/><circle cx="81" cy="120" r="5"/><circle cx="108" cy="112" r="5"/><circle cx="65" cy="137" r="4.5"/><circle cx="103" cy="135" r="4.5"/></g></g></svg>