<svg xmlns="http://www.w3.org/2000/svg" viewBox="0 0 240 220"><rect width="240" height="220" rx="18" fill="#f6f8f7"/><g stroke="#315e69" stroke-width="3" stroke-linejoin="round" stroke-linecap="round"><g><path d="M29 97 14 63h19l30 28h101c19 0 38 5 51 17-15 9-29 12-48 12H58l-22-8-14-15Z" fill="#d4e4e5"/><path d="M100 104 135 65h24l-16 39M111 117l39 37h-23l-44-37" fill="#8cb6bc"/><path d="M178 96l10 9h14" fill="none"/><path d="M64 101h6m10 0h6m10 0h6m10 0h6m10 0h6m10 0h6m10 0h6" stroke-width="5"/></g><g><rect x="143" y="143" width="66" height="51" rx="7" fill="#d4c3a1"/><path d="M162 141v-12h27v12M158 153v30m34-30v30" fill="none"/><circle cx="156" cy="200" r="4" fill="#315e69"/><circle cx="196" cy="200" r="4" fill="#315e69"/></g></g></svg>