<svg version="1.1" id="Layer_1" xmlns="http://www.w3.org/2000/svg" xmlns:xlink="http://www.w3.org/1999/xlink" x="0px" y="0px" viewBox="0 0 321 265" style="enable-background:new 0 0 321 265;" xml:space="preserve"><style type="text/css"> .st0{fill:#931118;} </style><g><path class="st0" d="M63.2,148.9c-1,2.4-1.8,4.8-3,7.1c-1.7,3.4-3.4,6.8-5.6,9.8c-4.4,6-11.2,6.9-17.6,2.6 c-6.1-4-8.1-11.3-4.6-17.4c6.3-11.1,12.7-22.2,19-33.3c1.8-3.2,3.6-6.4,5.6-9.5c3.4-5.5,8.2-9.4,14.8-10c14-1.4,28.1-2.2,42.2,0 c7.5,1.2,13.5,4.4,17.2,11.1c3.2,5.7,6.1,11.5,9,17.3c0.8,1.5,1.2,3.2-1.1,4.1c-1.9,0.7-3.5,0.5-4.5-1.5c-2.1-4-3.9-8.1-6.2-12 c-1.9-3.1-4-6.3-6.7-8.6c-2.4-1.9-5.8-3.5-8.9-3.6c-12.7-0.4-25.3-0.2-38-0.1c-5.4,0-9.5,2.6-12.2,7.3 C54.5,126.1,46.6,140,38.8,154c-2.3,4-1.6,6.2,2.4,8.4c4.4,2.4,6.6,2,8.7-2.2c5.1-10,10-20.1,14.9-30.2c1.8-3.7,4.9-4.9,6.7-2.2 c0.7,1.1,0.8,2.7,0.8,4.1c0.1,27.7,0,55.5,0.1,83.2c0,2.5-0.1,5,0.1,7.5c0.5,4.7,4.8,9.1,8.7,8.9c5-0.3,8.4-4,8.5-9.6 c0.1-13.5,0.1-27,0-40.5c0-3,0.9-4.4,4-4.5c3.2,0,3.2,2.1,3.2,4.4c0,14,0,28,0,42c0,6,2.2,7.9,9,8c5,0,8.3-3,8.5-8 c0.2-8.3,0.4-16.6,0.6-24.9c0-0.9-0.2-2.2,0.3-2.8c1-1.1,2.4-1.9,3.7-2.7c0.7,1,1.9,2,1.9,3.1c0.4,8.6,0.6,17.3,0.6,25.9 c0,6.7-2.8,12-8.9,15.1c-5.8,2.9-11.3,1.6-16.2-2.3c-1.6-1.3-2.9-2-4.9-0.2c-8.8,8.1-22.5,3.9-25.3-7.9c-1-4.2-1.2-8.7-1.2-13 c0.1-19.3,0.4-38.6,0.5-57.9c0-2.1-0.6-4.2-0.9-6.4C64.2,148.9,63.7,148.9,63.2,148.9z"/><path class="st0" d="M253.7,147.7c-0.1,1.5-0.4,2.9-0.3,4.4c0.2,19.3,0.4,38.6,0.5,58c0,4.9-0.1,9.7-0.6,14.5 c-1.1,10.1-11.7,16.5-20.7,12.7c-2.4-1-3.5-2.6-2.7-5c0.3-0.9,2-1.9,2.8-1.8c10.1,1.8,13.9-1.2,13.8-11.5 c0-28.2-0.1-56.4-0.2-84.6c0-1.2-0.4-2.5,0.1-3.5c0.6-1.6,1.6-3.9,2.8-4.1c1.2-0.3,3.6,1.1,4.3,2.4c3.8,7,7.1,14.2,10.7,21.3 c1.6,3.2,3.1,6.4,4.9,9.5c2.1,3.7,5.5,4.6,9.1,2.7c3-1.6,4-5.6,2.1-9c-7.9-14-15.8-28.1-23.8-42c-2.5-4.3-6.2-6.9-11.3-7 c-12.8,0-25.6,0-38.4,0.3c-5.7,0.1-10.1,3.4-13,8.2c-2.7,4.3-5,8.9-7.4,13.4c-1.2,2.4-2.7,3.4-5.3,2c-2.8-1.5-1.9-3.4-0.7-5.4 c2.9-4.9,5.6-9.9,8.6-14.7c3.8-6,9-9.9,16.6-10c12.9-0.1,25.8-0.8,38.7-0.6c8.1,0.2,14.8,4.2,19,11.4 c7.7,13.2,15.1,26.6,22.8,39.7c4.7,8.1,1,19.8-9.4,21.6c-4.8,0.8-9.4-0.7-12.2-5.2c-2.7-4.4-4.9-9.2-7.4-13.7 c-0.8-1.4-1.6-2.7-2.5-4.1C254.2,147.6,253.9,147.7,253.7,147.7z"/><path class="st0" d="M160.6,135.3c4.7,0,9.5,0,14.2,0c5.7,0,10,2.5,12.9,7.4c5.8,10,11.7,20,17.4,30.1c3.8,6.8,1.6,13.1-5.3,16 c-4,1.7-8.7,1-10.8-2.7c-4.9-8.9-9.3-18.1-13.7-27.2c-0.3-0.6,0.7-2.7,1.3-2.8c1.2-0.2,3.3,0.1,3.9,0.9c1.8,2.7,3.2,5.8,4.7,8.8 c2.5,4.8,4.9,9.7,7.4,14.6c1.1,2.2,2.7,3.4,5.1,2.2c2.5-1.2,2.9-3.1,1.5-5.6c-5.5-9.8-11-19.6-16.6-29.4c-2.3-4-6.1-5.8-10.7-5.8 c-8.1,0-16.1,0-24.2,0c-4.4,0-7.7,1.9-9.9,5.7c-5.4,9.7-10.9,19.4-16.4,29c-1.4,2.5-1.2,4.2,1.3,5.6c2.5,1.4,4.3,0.5,5.6-1.9 c3.7-7.3,7.5-14.5,11.2-21.8c1-1.9,2.1-3.5,4.6-2.8c2,0.5,2.9,1.5,1.9,3.6c-4.1,8.4-7.9,16.9-12.3,25.2c-3,5.6-8.9,6.6-14.7,3.1 c-5.5-3.3-6.8-8.3-3.7-13.9c5.8-10.1,11.6-20.1,17.3-30.2c3.2-5.7,7.9-8.5,14.5-8.2C151.5,135.4,156.1,135.2,160.6,135.3 C160.6,135.2,160.6,135.2,160.6,135.3z"/><path class="st0" d="M250.6,70.6c0,13.9-11.2,25-25.1,24.9c-13.6,0-24.8-11.4-24.8-25.1c0-13.9,11.3-24.9,25.2-24.8 C239.8,45.7,250.6,56.6,250.6,70.6z M243.5,70.5c0-10-7.7-17.9-17.6-18c-9.9-0.2-18.2,7.9-18.2,17.9c0,9.9,7.9,18,17.7,18 C235.5,88.5,243.5,80.6,243.5,70.5z"/><path class="st0" d="M93.7,95.6c-13.9,0-25.1-11.1-25-25c0.1-13.7,11.2-24.7,24.9-24.8c13.9,0,25.1,11.3,25,25.1 C118.6,84.6,107.4,95.6,93.7,95.6z M93.5,88.5c10.1,0,18.2-8,18.2-17.9c0-9.9-8.1-18-18.1-18c-10,0-18.2,8.2-18.1,18 C75.6,80.5,83.7,88.5,93.5,88.5z"/><path class="st0" d="M221.9,201.9c0-7.1,0.1-14.2,0-21.3c0-2.4,0.9-3.6,3.2-3.7c2.4-0.1,3.9,1.1,3.9,3.6c0,14.1,0.2,28.2-0.1,42.3 c-0.1,7.1-8.7,15.8-14.9,15.4c-8.1-0.5-15.9-4.6-16.3-15.4c-0.3-9.2,0-18.5,0.1-27.7c0-1,1.4-2.8,1.9-2.7c1.5,0.3,3.3,1,4.3,2.1 c0.7,0.8,0.4,2.5,0.4,3.8c0.1,7.9,0,15.9,0.2,23.8c0.2,7.4,6.7,11.3,13.2,8c2.9-1.5,4-3.8,4-6.9c0-3.6,0-7.1,0-10.7 C221.9,209,221.9,205.5,221.9,201.9z"/><path class="st0" d="M139.3,203c0-7.3,0-14.7,0-22c0-1.9,0.3-3.4,2.6-3.4c2.1,0,3.9,0.6,4,3c0.2,2.1,0.1,4.3,0.1,6.4 c0,12.7,0,25.4,0,38c0,0.7,0,1.4,0.1,2.1c0.4,2.8,3,5.2,5.7,4.8c2.9-0.4,4.7-2.1,4.7-5.2c0-10.1,0.2-20.1,0.2-30.2 c0-2.1,0.2-3.8,2.8-4.1c2.4-0.3,4.2,0.5,4.1,3.1c-0.1,11.8-0.2,23.7-0.8,35.5c-0.2,4.4-7.2,8.6-12,7.9 c-6.3-0.9-11.1-5.3-11.4-11.7c-0.4-8-0.1-16.1-0.1-24.2C139.3,203,139.3,203,139.3,203z"/><path class="st0" d="M160.4,96.3c9.9,0,17.8,7.9,17.9,17.8c0.1,10-8,18.1-18,18.1c-9.9,0-17.9-7.9-17.9-17.8 C142.3,104.3,150.3,96.2,160.4,96.3z M160.3,103.2c-6.2,0.1-11,4.9-11,11.1c0,6.1,5,11.1,11,11.1c6.3,0,11.2-5,11.2-11.3 C171.4,108,166.4,103.2,160.3,103.2z"/><path class="st0" d="M181.4,203.3c0,7.6,0.2,15.2,0,22.7c-0.3,8.3-5.3,13.2-13,12.6c-1.4-0.1-3.1-1.2-3.9-2.3 c-1.2-1.8-1.1-3.4,2-3.7c5.8-0.5,7.8-2.9,7.9-8.8c0.2-13.4,0.2-26.8,0.4-40.2c0-1.2-0.4-2.8,0.2-3.5c1.2-1.3,3-2.2,4.5-3.2 c0.6,1.2,1.8,2.4,1.8,3.6C181.5,188.2,181.4,195.7,181.4,203.3z"/><path class="st0" d="M121.5,138.4c0,2.7,0,5.4,0,8.2c0,2.2-1,3.7-3.4,3.7c-2.5,0-3.6-1.5-3.5-3.9c0-5.3,0-10.6,0.1-16 c0-2.3,1-4.1,3.4-4.1c2.7,0,3.6,1.8,3.5,4.3C121.5,133.2,121.6,135.8,121.5,138.4C121.6,138.4,121.5,138.4,121.5,138.4z"/><path class="st0" d="M197.8,138c0-2.7-0.3-5.5,0.1-8.1c0.2-1.3,2-2.4,3.1-3.6c1.2,1.1,3.3,2.1,3.3,3.3c0.4,5.7,0.5,11.4,0.2,17 c-0.1,1.2-1.9,3-3.2,3.3c-2.2,0.5-3.4-1.2-3.5-3.5c-0.1-2.8,0-5.7,0-8.5C197.9,138,197.8,138,197.8,138z"/></g></svg>