<svg version="1.1" id="Layer_1" xmlns="http://www.w3.org/2000/svg" xmlns:xlink="http://www.w3.org/1999/xlink" x="0px" y="0px" viewBox="0 0 321 265" style="enable-background:new 0 0 321 265;" xml:space="preserve"><style type="text/css"> .st0{fill:#931118;} </style><g><g><path class="st0" d="M214.1,157.1c-0.6-4.8-2.4-9.5-3.6-14.2c-2.6-10.6-5.8-20.8-12.7-29.6c-0.3-0.4-0.6-0.8-0.8-1.3 c-0.7-0.4-1.3-0.8-1.9-1.4c-0.2-0.2-0.5-0.5-0.7-0.7c-0.8-0.6-1.4-1.2-1.9-1.9c-0.3-0.3-0.6-0.6-0.9-0.9c-4.8-1.8-9.1-3.4-13.5-5 c-4.2-1.6-4.5-5.7-5.6-9.1c-1.8-5.2-0.3-10.1,1.2-15c0.3-0.9,1.6-1.8,2.6-2.3c3.9-1.9,6.2-4.6,5.8-9.3c-0.3-3.1-2.4-5.6-5.5-5.6 c-1.6,0-3.3,0.1-4.9,0.2c-3.1,0.1-4.8-1.4-4.9-4.4c-0.2-4.1-2-5.6-6.1-6.2c-3.4-0.5-6.6-1.3-8.1-5.3c-1.5-4-2-3.9-5.8-1.8 c-2.3,1.2-4.8,2.2-7,3.5c-3.6,2-5.5,4.9-5.5,9.4c0,6.5-0.9,12.9-1,19.4c-0.1,9.1,6.1,17.1,14.9,19.8c0.6,0.2,1.5,1.5,1.3,2.1 c-1,3.6-2.7,6.7-6.7,7.8c-2.8,0.7-5.5,1.5-8.8,2.4c-1,0.9-2.2,1.5-3.7,1.8c-0.1,0.5-0.2,0.9-0.5,1.3c-3.8,5.6-7.7,11.2-9.3,17.8 c-1.3,5.2-2.4,10.5-3.3,15.8c-1.1,6.1-1.8,12.3-2.9,18.4c-0.4,2.1-0.9,4.3-1.9,6.2c-3,5.3-5.8,10.6-5.5,17 c0.2,3.6,0.5,7.5-0.4,10.9c-2.3,8.5-1,15.9,5.1,22.4c1.4,1.5,2.2,3,2,5.1c-0.7,5.2-1.6,10.4-1.9,15.6c-0.5,8.2-0.6,16.5-0.9,24.7 h1.8c0.4-4.3,0.9-8.7,1.2-13c0.4-5.9,0.5-11.8,1-17.6c0.3-3.5,1.3-7,2-10.5c1.3,0.1,2.1,0.1,2.9,0.3c4.6,1.7,9.1,1.3,13.6-0.1 c4.1-1.3,6.1-6.6,3.5-9.2c-2.4-2.4-4.8-4.8-8.7-3.3c-0.7,0.3-1.7-0.1-2.5-0.2c-0.4-4.3-0.6-4.2-4.7-4.6c-3.2-0.2-6.8-0.7-8.4-3.8 c-1.6-3.2-2.9-6.7-3.4-10.2c-1.1-8,1.1-15.4,5.9-21.9c3.7-5,7.8-9.8,11.9-14.6c1.5-1.8,1.6-3.3,0.2-5.1c-3.6-5-4.1-10.2-1-15.6 c1.5-2.6,3-5.3,4.4-8c0.5-1,0.9-2,1.3-3c-5.1,3.6-8.8,8.1-10.3,14.2c0.3-3.4,1-6.8,2-10c1.9-6.5,5-12.5,10.6-16.6 c2.1-1.5,4.3-3.4,7.4-2.6c-0.7,2-1.2,3.6-1.7,5.2c-1.8,5.7,3.5,13.1,9.5,13.2c6.5,0.1,12-2.6,16.6-6.9c4.6-4.3,8.9-8.9,13.4-13.3 c0.8-0.7,2.3-1.7,3-1.4c6.7,2.5,12.2,6.5,16.3,12.6c4.6,6.7,6.5,14.4,9,22c0.4,1.2,1.5,3.4-1.2,4.3c-5.5,1.8-11,3.6-16.6,5.5 c-1.9-4.7-3.6-9.2-5.4-13.7c-0.2-0.6-1-1-1.5-1.5c-0.2,0.8-0.7,1.7-0.5,2.4c0.9,3,1.8,5.9,3,8.8c1.2,2.6,1.4,5.1,0.4,7.8 c-0.6,1.7-1.1,3.5-1.9,5.1c-0.4,0.7-1.4,1.5-2.2,1.5c-8.2,0-16-1.4-23.1-5.7c-1.9-1.2-4.2-1.9-6.3-2.7 c-5.5-2.1-10.6,0.5-15.9,1.5c-3.5,0.7-5.3,3.1-6.4,6.2c-1.3,3.6,2,10.3,5.2,10.6c8.1,0.7,16.1,1.3,24.2,1.9 c0.8,0.1,1.7-0.1,2.4,0.2c5.9,2.2,11.9,4.3,17.8,6.7c1.7,0.7,3.8,2,4.3,3.5c2.2,6.3,4.4,12.7,5.8,19.2c2,9.5,3.8,19.1,4.8,28.7 c1.1,10.7,1.4,21.5,1.9,32.3c0.3,0.5,0.5,1.1,0.7,1.7h1.2c0.6-28.1-2.9-55.6-11.8-82.7c1,0.1,1.7,0.3,2.5,0.4 c5.4,0.8,10.7,2,16.1,2.3c5.8,0.3,10.2-2.7,10.3-6.9C215.1,170.7,214.9,163.9,214.1,157.1z M109.6,203.7c1,3.5,3.6,4.5,6.9,4.6 c1.8,0.1,3.5,0.7,5.3,1.1c-0.7,2.8-3.1,1-4.5,1.7c-0.6,0.3-1.2,0.6-1.8,0.9c0,0.3-0.1,0.7-0.1,1c1.3,0.3,2.6,0.8,3.9,0.8 c3.7-0.1,7.3-0.5,11-0.2c-3.3,3.5-7.2,1.2-11.5,1.2c2.3,2.7,4.6,3.2,7.2,3c2.3-0.2,4.7-0.6,7-0.7c-3.4,2.9-7.7,0.5-11.7,2.6 c1.9,0.8,3.7,1.6,5.4,2.4c-10.1,1.4-21.2-9.6-18.3-20.6C108.9,202.5,109.5,203,109.6,203.7z M124.1,151.6 c0.3,0.8,0.2,2.1-0.2,2.7c-2.1,2.4-4.5,4.6-7.3,6.7c1.2-6.9,2.5-13.9,3.6-20.3C121.5,144.1,122.9,147.8,124.1,151.6z M137.6,81.7 c-1.2-3.9-1.9-7.9-2.7-11.4c0.9-6.2,1.6-11.5,2.5-16.9c0.1-0.6,0.5-1.4,1-1.8c1.9-1.5,3.7-3.2,5.8-4.4c4.6-2.6,4.4-2.3,7.9,1.8 c1.4,1.7,4.2,2.9,6.5,3.1c4.5,0.5,4.7,0.4,5.3,4.7c0.7,5.6,5.5,8.6,10.9,6.6c2.5-0.9,3.8-0.2,4.4,2.3c1,4.5-0.1,6.3-4.5,7.3 c-1.8,0.4-2.9,1.1-3.3,3.5c-1.3,7.4-5.8,12.5-12.8,15.3C148.6,95.9,140.4,90.4,137.6,81.7z M155.5,123.8 c-6.2,2.5-12,0.7-13.2-4.7c-1-4.7-0.3-9.4,4.1-12.5c2.8-2,4.6-4.5,5.1-7.9c0.4-2.6,2.7-3.2,4.4-3.4c5.4-0.7,9-4.2,13.1-7.6 c1.1,6.4,0,8.5,7.7,17.5C170.6,112.5,164.7,120,155.5,123.8z M187.4,155l0.7,0c0.7,1.9,1.4,3.9,2.3,6.2h-4.6 C186.4,158.9,186.9,157,187.4,155z M211.6,178.5c-0.6,1.5-3.3,2.6-5.2,2.8c-9.5,1.1-18.3-1.8-27-5c-4.6-1.7-9.1-3.8-13.8-5.3 c-5.4-1.7-11-2.3-16.7-2.1c-4.1,0.1-8.2-0.4-12.3-0.7c0-0.3,0-0.7,0-1h9.9c-1.6-2.5-3.6-2.6-5.5-2.7c-1.9-0.1-3.8,0-5.7,0 c0-0.3,0-0.5-0.1-0.8c2.8-0.2,5.7-0.4,8.5-0.6c0-0.5,0-1,0-1.4c-3.7-0.4-7.4-0.7-11.2-1.1c3.3-2.3,7.2-1.8,11.1-1.3 c0-0.4,0-0.9,0.1-1.3c-2.3-0.5-4.6-1.1-7.7-1.8h12c0-0.3-0.1-0.7-0.1-1c0.9-0.3,1.9-1,2.5-0.7c2.6,0.8,5.1,1.8,7.5,3.1 c6,3.1,12.3,4.8,19,5.3c6.9,0.5,13.8,1.6,20.7,2.4c1.1,0.1,2.2-0.3,3.3-0.4c0-0.3,0.1-0.7,0.1-1c-1.1-0.5-2.3-1.3-3.4-1.3 c-3.1,0-4.7-1.4-5.7-4.3c-1.8-5.2-2-5.2,3.2-7.1c4.4-1.6,8.9-3,13.6-4.6c0.5,1.6,1.2,3.2,1.5,4.8c1.1,6.1,2.3,12.2,2.9,18.4 C213.3,172.6,212.8,175.9,211.6,178.5z"/><path class="st0" d="M111.9,216.4c3.5,4,8.4,6.4,13.1,6.4c0.6,0,1.2,0,1.8-0.1l1.8-0.2l-6-2.6c1.4-0.4,2.8-0.5,4.2-0.5 c2.2,0,4.5,0,6.5-1.7l1.1-0.9l-1.5,0c-1.4,0-2.9,0.2-4.2,0.4c-0.9,0.1-1.9,0.2-2.8,0.3c-1.8,0.1-3.8,0-5.8-1.9 c0.8,0.1,1.5,0.2,2.3,0.3c3,0.5,5.9,1,8.4-1.7l0.7-0.8l-1.1-0.1c-2.7-0.2-5.5-0.1-8.1,0.1c-1,0.1-1.9,0.1-2.9,0.1 c-0.8,0-1.6-0.2-2.5-0.5c-0.3-0.1-0.5-0.2-0.8-0.2l0-0.3l0.3-0.2c0.4-0.2,0.8-0.4,1.2-0.6c0.4-0.2,0.9-0.1,1.5-0.1 c1.2,0.1,2.8,0.2,3.3-2l0.1-0.5L122,209c-0.5-0.1-1.1-0.3-1.6-0.4c-1.2-0.3-2.5-0.7-3.8-0.7c-3.8-0.2-5.6-1.4-6.4-4.3 c-0.1-0.5-0.4-1-0.8-1.5c-0.2-0.2-0.3-0.5-0.5-0.8l-0.6-1.1l-0.3,1.2C106.5,206.5,108,211.9,111.9,216.4z M128.8,218 c0.6-0.1,1.3-0.2,1.9-0.2c-1.2,0.4-2.4,0.4-3.7,0.4C127.6,218.2,128.2,218.1,128.8,218z M122.2,214.3c2.2-0.1,4.5-0.2,6.8-0.1 c-1.9,1.4-4.1,1-6.6,0.6c-0.9-0.1-1.8-0.3-2.7-0.4C120.6,214.4,121.4,214.3,122.2,214.3z M108.6,202.9c0.2,0.4,0.4,0.7,0.5,1v0 c1.2,4.2,4.4,4.9,7.4,5c1.2,0.1,2.3,0.4,3.6,0.7c0.4,0.1,0.7,0.2,1.1,0.3c-0.4,0.8-1,0.8-2.1,0.7c-0.7-0.1-1.4-0.1-2,0.2 c-0.4,0.2-0.9,0.4-1.3,0.6l-0.8,0.4l-0.1,1.7l0.4,0.1c0.4,0.1,0.8,0.2,1.2,0.3c0.6,0.2,1.1,0.3,1.7,0.4l-0.6,0l0.7,0.9 c2,2.3,4,3,5.8,3.2c-1,0.1-2.1,0.4-3.1,0.9l-0.9,0.5l4.4,1.9c-4.2-0.1-8.6-2.3-11.9-6C109.3,211.9,107.9,207.2,108.6,202.9z"/><path class="st0" d="M214.6,157.1c-0.4-3.2-1.3-6.3-2.2-9.3c-0.5-1.6-1-3.3-1.4-5c-2.9-11.8-6.2-21.4-12.8-29.8 c-0.3-0.3-0.5-0.7-0.8-1.2l-0.1-0.1l-0.1-0.1c-0.7-0.3-1.3-0.8-1.8-1.3l-0.8-0.8c-0.7-0.5-1.3-1.1-1.9-1.9l-0.9-0.9l-4.1-1.6 c-3.3-1.2-6.5-2.4-9.6-3.6c-3.2-1.2-3.9-3.9-4.7-6.7c-0.2-0.7-0.4-1.4-0.6-2.1c-1.7-5-0.2-9.9,1.2-14.7c0.2-0.6,1.1-1.3,2.3-1.9 c4.6-2.2,6.5-5.3,6.1-9.8c-0.3-3.5-2.8-6-6-6.1c-1.1,0-2.3,0-3.4,0.1c-0.5,0-1,0.1-1.5,0.1c-2.8,0.1-4.3-1.2-4.4-3.9 c-0.2-4.2-2-6-6.6-6.7c-3.1-0.4-6.3-1.2-7.7-5c-0.8-2-1.3-3.1-2.2-3.4c-1-0.4-2.2,0.2-4.3,1.3c-1,0.5-2,1-3,1.5 c-1.3,0.6-2.7,1.3-4,2c-3.9,2.2-5.8,5.4-5.8,9.8c0,3.3-0.3,6.7-0.5,10c-0.2,3.1-0.4,6.2-0.5,9.4c-0.1,9.2,6.2,17.5,15.3,20.3 c0.4,0.1,1,1.2,1,1.5c-0.8,2.9-2.3,6.4-6.4,7.4c-2,0.5-4.1,1.1-6.3,1.7l-2.6,0.7l-0.1,0.1c-1,0.9-2.1,1.4-3.5,1.6l-0.3,0.1 l-0.1,0.3c-0.1,0.5-0.2,0.9-0.4,1.1l-0.5,0.8c-3.6,5.3-7.3,10.8-8.9,17.2c-1.4,5.5-2.5,11.1-3.3,15.9c-0.6,3.1-1,6.4-1.5,9.5 c-0.4,2.9-0.9,6-1.4,8.9c-0.3,1.8-0.8,4.1-1.9,6c-2.7,5-5.9,10.6-5.6,17.3c0,0.5,0,1,0.1,1.5c0.2,3.1,0.3,6.3-0.5,9.2 c-2.5,9-0.8,16.5,5.2,22.9c1.5,1.6,2.1,3,1.8,4.7c-0.2,1.5-0.4,2.9-0.6,4.4c-0.5,3.7-1.1,7.5-1.3,11.2 c-0.4,5.8-0.5,11.6-0.7,17.3c-0.1,2.5-0.1,4.9-0.2,7.4l0,0.5h2.8l0-0.5c0.1-1.3,0.3-2.7,0.4-4c0.3-3,0.6-6,0.8-9 c0.2-2.4,0.3-4.9,0.4-7.2c0.1-3.4,0.3-6.9,0.6-10.4c0.2-2.4,0.8-4.9,1.3-7.2c0.2-0.9,0.4-1.9,0.6-2.8c0.3,0,0.5,0,0.8,0.1 c0.6,0,1.1,0.1,1.5,0.2c4.2,1.6,8.8,1.6,13.9-0.1c2.4-0.8,4.3-2.9,4.9-5.3c0.4-1.8,0-3.6-1.1-4.7l-0.1-0.1 c-2.3-2.3-4.9-4.9-9.1-3.4c-0.4,0.1-0.9,0-1.5-0.1c-0.1,0-0.3-0.1-0.4-0.1c-0.4-4.1-0.9-4.3-4.9-4.6l-0.2,0 c-3.4-0.3-6.6-0.7-8-3.5c-1.8-3.4-2.9-6.9-3.3-10c-1-7.7,0.9-14.9,5.8-21.5c3.2-4.3,6.7-8.5,10.1-12.5l1.7-2 c1.6-2,1.7-3.7,0.2-5.8c-3.6-5-3.9-9.9-1-15c1.5-2.7,3-5.4,4.4-8c0.4-0.7,0.7-1.4,0.9-2.1c0.1-0.3,0.3-0.6,0.4-0.9l0.7-1.7 l-1.5,1.1c-4.1,2.9-7,6.1-8.8,9.9c0.3-1.7,0.7-3.4,1.3-5.2c2.2-7.6,5.6-12.8,10.4-16.4l0.4-0.3c1.8-1.3,3.6-2.7,5.9-2.3l-0.4,1.3 c-0.4,1.2-0.8,2.3-1.1,3.4c-0.9,2.8-0.2,6.2,1.9,9.1c2.1,2.9,5.1,4.7,8.1,4.7c6.2,0.1,11.8-2.3,17-7.1c2.6-2.4,5.1-5,7.6-7.5 c1.9-1.9,3.9-3.9,5.9-5.9c0.8-0.8,2.1-1.4,2.5-1.3c6.9,2.6,12.1,6.6,16,12.4c3.8,5.5,5.8,11.9,7.7,18c0.4,1.3,0.8,2.6,1.2,3.8 c0,0.1,0.1,0.3,0.1,0.4c0.3,0.7,0.6,1.7,0.3,2.3c-0.2,0.4-0.6,0.7-1.3,0.9c-3.9,1.2-7.7,2.5-11.7,3.9c-1.5,0.5-3,1-4.5,1.5 l-1.1-2.9c-1.4-3.6-2.7-6.9-4.1-10.3c-0.2-0.5-0.7-0.9-1.1-1.2c-0.2-0.1-0.3-0.3-0.5-0.4l-0.7-0.6l-0.2,0.9 c-0.1,0.2-0.1,0.5-0.2,0.7c-0.2,0.6-0.4,1.3-0.2,1.9c1,3.2,1.8,6,3.1,8.8c1.2,2.6,1.3,5,0.4,7.4c-0.2,0.5-0.3,0.9-0.5,1.4 c-0.4,1.2-0.8,2.5-1.4,3.6c-0.3,0.6-1.2,1.2-1.7,1.2c-9.2,0-16.5-1.8-22.9-5.7c-1.7-1-3.6-1.8-5.4-2.4l-0.9-0.4 c-4.3-1.6-8.4-0.5-12.4,0.6c-1.3,0.3-2.6,0.7-3.8,1c-3.3,0.7-5.4,2.7-6.8,6.5c-0.9,2.5,0.3,6,1.7,8.2c1.2,1.8,2.6,2.9,3.9,3 c5.8,0.5,11.7,1,17.4,1.4c2.3,0.2,4.5,0.3,6.8,0.5c0.3,0,0.6,0,0.8,0c0.5,0,1,0,1.4,0.2l2.5,0.9c5,1.8,10.2,3.7,15.3,5.8 c1.6,0.6,3.5,1.9,4,3.2c2.5,7.1,4.4,13,5.7,19.1c1.8,8.4,3.7,18.4,4.8,28.6c0.8,7.9,1.2,15.9,1.5,23.7c0.1,2.6,0.2,5.1,0.4,7.7 c0.7,0.9,1.1,2,1.4,3.1h1.6l0-0.5c0.6-29.5-3.2-56.4-11.6-82.1l1.7,0.2c1.6,0.2,3.3,0.5,4.9,0.8c3.7,0.6,7.5,1.3,11.2,1.5 c3.5,0.2,6.6-0.8,8.7-2.7c1.4-1.3,2.1-2.9,2.2-4.7C215.7,169.9,215.4,163.3,214.6,157.1z M214.5,177.4c0,1.5-0.7,2.9-1.8,4 c-1.8,1.7-4.7,2.6-7.9,2.4c-3.7-0.2-7.5-0.8-11.1-1.4c-1.6-0.3-3.3-0.6-4.9-0.8l-3.3-0.5l0.3,0.8c8.5,25.7,12.3,52.5,11.8,82 h-0.8c-0.2-3.3-0.3-6.6-0.5-9.8c-0.4-7.8-0.7-15.9-1.5-23.7c-1.1-10.3-3-20.3-4.8-28.7c-1.3-6.2-3.3-12.2-5.8-19.3 c-0.6-1.7-2.8-3.1-4.6-3.8c-5-2.1-10.3-4-15.3-5.8l-2.5-0.9c-0.6-0.2-1.2-0.2-1.8-0.2c-0.3,0-0.5,0-0.8,0 c-2.3-0.2-4.5-0.3-6.8-0.5c-5.7-0.4-11.6-0.9-17.4-1.4c-1-0.1-2.2-1-3.1-2.6c-1.6-2.4-2.2-5.5-1.6-7.3c0.6-1.7,1.3-3,2.3-3.9 l10.7,2.5l0,0.3c-3.7-0.5-7.5-0.9-10.9,1.4l-1.1,0.8l12.1,1.2l0,0.5l-8.5,0.6l0.1,1.8h0.5c0.6,0,1.2,0,1.7,0c1.3,0,2.6,0,3.9,0 l0.1,0c1.6,0.1,3,0.2,4.4,1.7h-9.4l0,2l0.5,0c1.3,0.1,2.5,0.2,3.8,0.3c2.8,0.2,5.7,0.5,8.5,0.4c6.1-0.2,11.5,0.5,16.5,2.1 c2.8,0.9,5.6,2,8.3,3.1c1.8,0.7,3.6,1.5,5.4,2.1c8.9,3.3,17.8,6.1,27.3,5c1.8-0.2,4.8-1.4,5.6-3.1c1.2-2.8,1.8-6.1,1.5-9.1 c-0.5-5-1.4-10-2.3-14.8c-0.2-1.2-0.4-2.4-0.7-3.6c-0.2-1.1-0.6-2.3-1-3.4c-0.2-0.5-0.3-1-0.5-1.5l-0.2-0.5l-0.5,0.2 c-1.5,0.5-2.9,1-4.3,1.4c-3.2,1.1-6.2,2.1-9.3,3.2c-5.3,1.9-5.4,2.3-3.6,7.4l0.1,0.3c1.1,3.2,3,4.6,6.1,4.6c0,0,0.1,0,0.1,0 c0.6,0,1.4,0.4,2.1,0.7c0.2,0.1,0.5,0.3,0.7,0.4l0,0.3c-0.2,0-0.5,0.1-0.7,0.1c-0.7,0.2-1.4,0.3-2.1,0.2 c-2.6-0.3-5.3-0.6-7.8-0.9c-4.2-0.5-8.6-1.1-12.9-1.4c-6.9-0.5-13-2.2-18.8-5.3c-2.1-1.1-4.5-2.1-7.5-3.1 c-0.7-0.2-1.4,0.1-2.1,0.4c-0.3,0.1-0.5,0.2-0.8,0.3l-0.4,0.1l0.1,0.8h-14.7c1-0.9,2.1-1.4,3.5-1.7c1.3-0.3,2.6-0.6,3.9-1 c4-1.1,7.7-2.1,11.7-0.6l0.9,0.4c1.8,0.7,3.7,1.4,5.3,2.3c6.5,4,13.8,5.8,23.2,5.8h0.2c1,0,2.2-0.9,2.6-1.7 c0.6-1.2,1-2.5,1.5-3.8c0.2-0.5,0.3-0.9,0.5-1.4c0.9-2.7,0.8-5.3-0.5-8.2c-1.2-2.7-2.1-5.6-3-8.7c-0.1-0.3,0.1-0.8,0.2-1.3 c0,0,0,0,0,0c0.3,0.3,0.6,0.5,0.7,0.8c1.4,3.4,2.7,6.7,4.1,10.3l1.5,3.8l0.5-0.2c1.7-0.6,3.3-1.1,4.9-1.7c4-1.3,7.8-2.6,11.7-3.9 c0.9-0.3,1.5-0.8,1.9-1.4c0.5-1.1,0.1-2.3-0.2-3.1c0-0.1-0.1-0.3-0.1-0.4c-0.4-1.3-0.8-2.6-1.2-3.8c-2-6.2-4-12.6-7.8-18.3 c-4-5.9-9.4-10.1-16.5-12.8c-1.1-0.4-2.9,0.8-3.6,1.5c-2,1.9-4,3.9-5.9,5.9c-2.4,2.5-5,5-7.6,7.5c-5,4.7-10.3,6.9-16.2,6.8 c-2.7-0.1-5.4-1.7-7.3-4.3c-1.9-2.6-2.6-5.7-1.8-8.2c0.3-1.1,0.7-2.2,1.1-3.4l0.8-2.4l-0.5-0.1c-3.1-0.8-5.4,0.9-7.4,2.4 l-0.4,0.3c-5,3.7-8.4,9.1-10.8,16.9c-1,3.3-1.7,6.7-2,10.1l1,0.2c1.3-5,4.1-9.2,8.6-12.8c-0.2,0.4-0.4,0.8-0.6,1.2 c-1.4,2.6-2.9,5.3-4.4,8c-3.1,5.5-2.8,10.9,1,16.2c1.2,1.7,1.2,2.9-0.2,4.5l-1.7,2c-3.4,4.1-7,8.2-10.2,12.6 c-5,6.8-7.1,14.3-6,22.3c0.4,3.3,1.6,6.9,3.4,10.4c1.7,3.3,5.3,3.8,8.8,4.1l0.2,0c3.6,0.3,3.6,0.3,4,4.1l0,0.4l0.4,0 c0.2,0,0.5,0.1,0.7,0.1c0.6,0.1,1.4,0.3,2,0c3.6-1.4,5.8,0.8,8.1,3.1l0.1,0.1c0.9,0.9,1.2,2.3,0.9,3.7c-0.5,2.1-2.1,3.9-4.2,4.6 c-4.9,1.6-9.2,1.7-13.3,0.2c-0.6-0.2-1.1-0.2-1.8-0.3c-0.3,0-0.7,0-1.2-0.1l-0.5-0.1l-0.1,0.5c-0.2,1.1-0.4,2.2-0.7,3.2 c-0.5,2.4-1.1,4.9-1.3,7.3c-0.3,3.5-0.5,7-0.6,10.4c-0.1,2.4-0.2,4.8-0.4,7.2c-0.2,3-0.5,6-0.8,9c-0.1,1.2-0.2,2.4-0.4,3.5H111 c0.1-2.3,0.1-4.6,0.2-6.8c0.2-5.7,0.3-11.5,0.7-17.3c0.2-3.7,0.8-7.5,1.3-11.2c0.2-1.5,0.4-2.9,0.6-4.4c0.3-2.5-0.9-4.2-2.1-5.5 c-5.7-6-7.3-13.2-5-21.9c0.8-3,0.7-6.3,0.5-9.5c0-0.5-0.1-1-0.1-1.5c-0.3-6.4,2.8-11.9,5.4-16.8c1.1-2,1.7-4.5,2-6.3 c0.5-3,1-6,1.4-9c0.5-3.1,0.9-6.3,1.5-9.4c0.8-4.7,1.9-10.3,3.3-15.8c1.6-6.3,5.2-11.7,8.8-16.9l0.5-0.8c0.3-0.4,0.4-0.8,0.5-1.2 c1.3-0.3,2.5-0.9,3.5-1.7l2.4-0.7c2.2-0.6,4.3-1.2,6.3-1.7c4.6-1.2,6.2-5,7.1-8.2c0.2-0.8-0.8-2.5-1.6-2.7 c-8.7-2.6-14.6-10.5-14.5-19.3c0-3.1,0.3-6.3,0.5-9.3c0.2-3.3,0.5-6.7,0.5-10.1c0-4.1,1.7-6.9,5.3-8.9c1.3-0.7,2.7-1.4,4-2 c1-0.5,2-1,3.1-1.5c1.8-0.9,2.9-1.5,3.5-1.3c0.5,0.2,1,1.2,1.6,2.8c1.6,4.3,5.2,5.2,8.5,5.6c4.1,0.6,5.5,2,5.7,5.7 c0.2,3.3,2,5,5.5,4.9c0.5,0,1,0,1.5-0.1c1.1-0.1,2.2-0.1,3.4-0.1c2.7,0.1,4.7,2.2,5,5.2c0.3,4-1.4,6.8-5.6,8.8 c-1.1,0.5-2.5,1.4-2.9,2.6c-1.5,4.9-3.1,10-1.2,15.4c0.2,0.7,0.4,1.3,0.6,2c0.8,3,1.7,6,5.3,7.4c3.1,1.2,6.3,2.3,9.6,3.6l3.8,1.4 l0.8,0.8c0.5,0.8,1.2,1.5,2,2l0.7,0.7c0.6,0.6,1.2,1,1.9,1.4c0.3,0.5,0.5,0.8,0.8,1.2c6.5,8.2,9.7,17.7,12.6,29.4 c0.4,1.7,0.9,3.4,1.4,5c0.9,3,1.8,6.1,2.2,9.1C214.3,163.3,214.6,170,214.5,177.4z M148.4,155.6c0.2-0.1,0.3-0.1,0.5-0.2 c0.5-0.2,1.1-0.5,1.3-0.4c3,1,5.3,1.9,7.4,3c5.9,3.1,12.2,4.9,19.2,5.4c4.3,0.3,8.7,0.9,12.9,1.4c2.6,0.3,5.2,0.7,7.8,0.9 c0.8,0.1,1.6-0.1,2.4-0.2c0.3-0.1,0.7-0.1,1-0.2l0.4-0.1l0.2-1.8l-0.4-0.1c-0.3-0.1-0.7-0.3-1-0.5c-0.8-0.4-1.7-0.8-2.6-0.8 c0,0-0.1,0-0.1,0c-2.7,0-4.1-1.1-5.1-3.9l-0.1-0.3c-1.5-4.4-1.5-4.4,3-6.1c3-1.1,6.1-2.1,9.2-3.2c1.3-0.4,2.6-0.8,3.9-1.3 c0.1,0.3,0.2,0.7,0.4,1c0.4,1.1,0.7,2.1,0.9,3.2c0.2,1.2,0.4,2.4,0.7,3.6c0.9,4.8,1.8,9.8,2.3,14.7c0.3,2.8-0.3,6-1.4,8.6 c-0.5,1.2-3,2.3-4.8,2.5c-9.3,1.1-18-1.7-26.8-5c-1.8-0.7-3.6-1.4-5.4-2.1c-2.7-1.1-5.6-2.3-8.4-3.2c-4.7-1.5-9.6-2.2-15.1-2.2 c-0.6,0-1.2,0-1.8,0c-2.8,0.1-5.7-0.2-8.4-0.4c-1.1-0.1-2.2-0.2-3.3-0.3l10.4,0L147,167c-1.7-2.7-3.9-2.8-5.8-2.9l-0.1,0 c-0.7,0-1.3-0.1-2-0.1l5.3-0.4l-0.1-2.4l-10-1c2.8-1.2,5.8-0.9,9-0.5l0.8,0.1l0.1-2.3l-3.8-0.9h8.2L148.4,155.6z"/><path class="st0" d="M115.9,162.1l1-0.7c2.6-1.9,5-4.1,7.4-6.7c0.7-0.8,0.6-2.4,0.3-3.2l0,0c-0.9-2.8-1.9-5.6-2.9-8.2 c-0.3-0.9-0.7-1.8-1-2.7l-0.7-1.8L115.9,162.1z M120.7,143.5c1,2.7,2,5.4,2.9,8.2c0.2,0.7,0.2,1.8-0.1,2.2c-2,2.2-4,4.2-6.2,5.8 l3.1-17.1C120.5,142.9,120.6,143.2,120.7,143.5z"/><path class="st0" d="M158.5,92.4c7.3-2.9,11.8-8.4,13.1-15.7c0.4-2.2,1.3-2.7,2.9-3.1c2.4-0.5,3.8-1.3,4.6-2.6 c0.8-1.2,0.9-2.9,0.3-5.4c-0.3-1.4-0.9-2.3-1.7-2.8c-0.8-0.4-1.9-0.4-3.3,0.1c-2.4,0.9-4.8,0.7-6.7-0.4c-1.9-1.2-3.2-3.2-3.5-5.8 c-0.6-4.4-1-4.5-5.2-5l-0.6-0.1c-2.4-0.3-4.9-1.5-6.1-3l-0.6-0.7c-3-3.6-3.5-3.6-7.9-1.1c-1.8,1-3.3,2.3-4.9,3.6 c-0.3,0.3-0.7,0.5-1,0.8c-0.6,0.5-1.1,1.3-1.2,2.1c-0.6,4.1-1.2,8.2-1.8,12.6l-0.6,4.4l0,0.1c0.2,1,0.5,2.1,0.7,3.2 c0.6,2.7,1.1,5.4,2,8.2c1.6,4.8,4.8,8.7,8.8,10.6c1.9,0.9,4,1.4,6.1,1.4C154.1,93.7,156.3,93.3,158.5,92.4z M146.4,91.5 c-3.8-1.8-6.8-5.4-8.3-10c-0.9-2.7-1.4-5.4-2-8.1c-0.2-1.1-0.5-2.2-0.7-3.2L136,66c0.6-4.4,1.2-8.5,1.8-12.5 c0.1-0.5,0.4-1.2,0.8-1.5c0.3-0.3,0.7-0.5,1-0.8c1.5-1.3,3-2.6,4.7-3.5c3.9-2.2,3.9-2.2,6.6,0.9l0.6,0.8c1.6,1.9,4.6,3,6.8,3.3 l0.6,0.1c3.8,0.4,3.8,0.4,4.3,4.1c0.4,2.9,1.8,5.2,4,6.5c2.2,1.3,4.9,1.5,7.6,0.5c1.1-0.4,1.9-0.5,2.5-0.2c0.5,0.3,0.9,1,1.2,2.1 c0.5,2.1,0.4,3.6-0.2,4.6c-0.6,1-1.9,1.6-4,2.1c-2,0.4-3.3,1.2-3.7,3.9c-1.2,7-5.5,12.1-12.5,15C154,93.1,149.9,93.1,146.4,91.5z "/><path class="st0" d="M187,154.5l-1.9,7.3h6l-2.7-7.3L187,154.5z M186.5,160.7l1.3-5.1l1.9,5.1H186.5z"/><path class="st0" d="M170,90.6c-0.1-0.9-0.2-1.8-0.4-2.9l-0.1-0.9l-0.7,0.6c-0.4,0.3-0.8,0.7-1.2,1c-3.6,3-6.9,5.8-11.6,6.5 c-1.2,0.2-4.4,0.6-4.9,3.8c-0.5,3.1-2.1,5.6-4.9,7.5c-4,2.8-5.5,7.2-4.3,13c0.5,2.3,1.8,4.1,3.8,5.2c1.3,0.7,2.8,1,4.5,1 c1.8,0,3.6-0.4,5.5-1.2c8.7-3.5,14.5-10.4,20.1-17.1l1.6-1.9l-0.3-0.3C170.8,97.6,170.5,95,170,90.6z M175,106.6 c-5.5,6.6-11.3,13.3-19.7,16.8c-3.4,1.4-6.8,1.4-9.2,0.2c-1.7-0.9-2.9-2.5-3.3-4.5c-1.1-5.3,0.2-9.4,3.9-11.9 c3-2.1,4.8-4.8,5.3-8.2c0.3-2.2,2.2-2.7,4-3c5-0.7,8.5-3.6,12.2-6.7c0.2-0.1,0.4-0.3,0.5-0.4c0.1,0.7,0.2,1.4,0.3,2 c0.6,4.5,0.9,7.2,7.1,14.5L175,106.6z"/></g><g><path class="st0" d="M188.1,155c0.7,1.9,1.4,3.9,2.3,6.2c-1.5,0-3,0-4.6,0c0.6-2.3,1.1-4.3,1.6-6.2 C187.7,155,187.9,155,188.1,155z"/><path class="st0" d="M191.2,161.8h-6l1.9-7.3l1.4,0L191.2,161.8z M186.5,160.7h3.2l-1.9-5.1L186.5,160.7z"/></g><g><path class="st0" d="M147.5,71.6c-0.5,1.4-1,2.9-1.6,4.6c0.1,0.1,0.3,0.3,0.5,0.6c0.6,0.8,1.1,1.5,1.7,2.3 c-1.1,0.1-2.3,0.5-3.2,0.1c-2.2-1-2.7-2.9-1.3-5c0.8-1.2,1.9-2.2,2.8-3.3C146.8,71.1,147.1,71.4,147.5,71.6z"/><path class="st0" d="M145.8,79.9c-0.4,0-0.7-0.1-1.1-0.2c-1.2-0.6-2-1.4-2.3-2.4c-0.3-1,0-2.2,0.8-3.4c0.6-0.8,1.3-1.6,1.9-2.3 c0.3-0.3,0.6-0.7,0.9-1l0.3-0.3l1.8,1.1l-1.6,4.7c0.1,0.1,0.2,0.3,0.4,0.4c0.4,0.5,0.8,1.1,1.2,1.6l1,1.4l-0.9,0.1 c-0.3,0-0.7,0.1-1,0.1C146.7,79.8,146.2,79.9,145.8,79.9z M146.5,71.6c-0.2,0.2-0.4,0.5-0.6,0.7c-0.6,0.7-1.3,1.4-1.9,2.2 c-0.6,0.9-0.9,1.8-0.7,2.5c0.2,0.7,0.8,1.3,1.7,1.7c0.4,0.2,1.2,0.1,1.9,0c0.1,0,0.1,0,0.2,0c-0.4-0.5-0.8-1.1-1.2-1.6 c-0.2-0.2-0.3-0.4-0.4-0.5l-0.3-0.3l1.5-4.5L146.5,71.6z"/></g><g><path class="st0" d="M145.8,84.4c3,0.4,6.1,2.1,8.3-1.2c1.4,2.3,1.4,2.3-1.4,3.7C149.8,88.4,147.1,87.6,145.8,84.4z"/><path class="st0" d="M150,88.1c-0.6,0-1.1-0.1-1.6-0.3c-1.3-0.5-2.4-1.6-3.1-3.3l-0.3-0.8l0.9,0.1c0.6,0.1,1.3,0.2,1.9,0.4 c2.3,0.5,4.3,1,5.9-1.3l0.4-0.7l0.4,0.7c0.7,1.2,1.1,1.8,0.9,2.5c-0.2,0.7-0.9,1.1-2.5,1.9C151.9,87.9,151,88.1,150,88.1z M146.7,85.1c0.5,0.9,1.2,1.5,2.1,1.8c1.1,0.4,2.3,0.2,3.7-0.4c1.1-0.6,1.9-1,2-1.3c0-0.2-0.1-0.5-0.4-1.1 c-1.9,2.1-4.3,1.6-6.5,1.1C147.3,85.2,147,85.2,146.7,85.1z"/></g><g><path class="st0" d="M160.4,62.9c-2.3-0.4-4.4-0.7-6.5-1.2c-0.1,0-0.3-1.4,0-1.6C155.6,58.7,159.6,60.1,160.4,62.9z"/><path class="st0" d="M161.1,63.6l-2.1-0.4c-1.8-0.3-3.5-0.6-5.2-1c-0.4-0.1-0.4-0.4-0.5-0.6c0,0-0.3-1.4,0.2-1.9 c0.9-0.8,2.3-0.9,3.7-0.5c1.4,0.4,3.1,1.6,3.7,3.5L161.1,63.6z M154.2,61.3c1.6,0.3,3.2,0.6,4.9,0.9l0.4,0.1 c-0.5-0.9-1.5-1.7-2.6-2c-1.1-0.3-2.1-0.2-2.7,0.2C154.2,60.7,154.2,61.1,154.2,61.3z"/></g><g><path class="st0" d="M142.5,68.1c-1.6,2.9-3,1.7-4.4,0.2C139.8,66.2,139.8,66.2,142.5,68.1z"/><path class="st0" d="M140.4,70.4c-1.1,0-2-0.9-2.8-1.7l-0.3-0.3l0.3-0.4c2-2.4,2.3-2.3,5.1-0.3l0.4,0.3l-0.2,0.4 c-0.7,1.2-1.4,1.9-2.2,2C140.6,70.4,140.5,70.4,140.4,70.4z M138.7,68.2c0.6,0.6,1.3,1.2,1.8,1.1c0.4-0.1,0.8-0.4,1.2-1.1 c-0.9-0.7-1.5-1.1-1.8-1C139.7,67.2,139.3,67.6,138.7,68.2z"/></g><g><path class="st0" d="M155.7,67.1c1.1,0.6,2.2,1.3,3.3,1.9c-0.4,0.5-1,1.4-1.2,1.4c-1-0.5-2-1.2-3-1.9 C155.1,68.1,155.4,67.6,155.7,67.1z"/><path class="st0" d="M157.8,71c-0.1,0-0.2,0-0.3-0.1c-0.8-0.4-1.6-0.9-2.4-1.5l-1.1-0.7l1.4-2.3l4.2,2.5l-0.4,0.5 c-0.1,0.1-0.3,0.3-0.4,0.5C158.4,70.6,158.1,71,157.8,71z M155.5,68.4c0.1,0.1,0.2,0.1,0.3,0.2c0.7,0.4,1.3,0.9,1.9,1.2 c0.1-0.1,0.3-0.4,0.4-0.5c0,0,0.1-0.1,0.1-0.1l-2.3-1.4L155.5,68.4z"/></g><g><path class="st0" d="M142.6,60.9c-0.9,0-1.8,0.1-2.6,0c-0.6-0.1-1.3-0.3-1.8-0.7c-0.2-0.1,0-1.2,0.2-1.3c0.7-0.3,1.5-0.5,2.2-0.3 c0.8,0.3,1.6,0.9,2.3,1.4C142.8,60.3,142.7,60.6,142.6,60.9z"/><path class="st0" d="M141,61.4c-0.4,0-0.7,0-1.1-0.1c-0.7-0.1-1.5-0.4-2.1-0.8c-0.3-0.2-0.3-0.6-0.3-1c0.1-0.4,0.2-1,0.6-1.2 c1-0.4,1.9-0.5,2.5-0.3c0.7,0.2,1.2,0.6,1.8,1c0.2,0.2,0.4,0.3,0.7,0.5l0.3,0.2l-0.5,1.6h-0.4c-0.3,0-0.5,0-0.8,0 C141.6,61.4,141.3,61.4,141,61.4z M138.6,59.9c0.4,0.3,0.9,0.4,1.4,0.5c0.6,0.1,1.1,0.1,1.8,0c0.1,0,0.3,0,0.4,0l0-0.1 c-0.1-0.1-0.3-0.2-0.4-0.3c-0.5-0.4-1-0.7-1.5-0.9c-0.3-0.1-0.8-0.1-1.7,0.2C138.7,59.5,138.6,59.7,138.6,59.9z"/></g><g><path class="st0" d="M179.3,90.8c-1.9,0-3.3-1.2-4.2-2.1c-0.3-0.3-0.8-0.8-1-0.8c-0.7-0.1-0.7-0.1-1.2,0.2 c-0.5,0.3-1.3,0.6-2.5,0.8l-0.6-4.1c0.6-0.1,0.9-0.2,1.3-0.4c1-0.5,1.9-0.8,3.7-0.5c1.4,0.2,2.3,1.1,3.1,1.8c0.9,0.8,1.2,1,1.6,1 c0,0,0,0,0,0c0,0,0.1-0.1,0.1-0.1c0.3-0.4,0.8-1.2,1.9-1.7c1-0.4,2.2-0.3,3.6-0.3c0.4,0,1,0,1.5,0c-0.1-0.5-0.1-1.2,0.1-2 c1.1-3.1,3.1-3.6,4.4-4c0.8-0.2,1.2-0.3,1.5-0.7c0.2-0.2,0.2-0.3,0-1.2c-0.1-0.8-0.3-1.9,0-3c0.3-1.1,1-2,1.5-2.7 c0.7-0.9,0.9-1.3,0.9-1.7c0-0.1-0.4-0.6-0.7-0.8c-0.6-0.6-1.3-1.3-1.6-2.4c-0.5-1.5-0.2-2.6,0-3.4c0.1-0.4,0.2-0.7,0.2-1 c0-0.8-0.2-1.8-0.4-2.8c-0.2-1.1-0.5-2.2-0.5-3.3l0-0.2c-0.1-1.2-0.1-1.4-0.4-2.5c-0.3-1.1-0.9-3-1.3-3.9c-0.4-0.9-1.2-1.6-2-2.4 c-1.2-1.1-2.5-2.3-3.1-4.2l-0.3-1l0.6-0.9c0.6-0.8,0.8-1.7,0.6-2.6c-0.2-1.3-1.2-2.7-2.6-3.5c-0.7-0.4-1.3-0.5-2.2-0.7 c-1.3-0.2-2.9-0.5-4.4-2.1l-0.6-0.6l0-1.8c-0.6-0.9-1.4-1.6-2.5-2l-0.3-0.1l-0.2-0.2c-1-0.9-2.2-1.3-3.6-1.2 c-1.4,0.7-2.8,1-4.3,1.1l-0.2,0l-0.2,0c-1.6-0.3-2.5-1.3-3.1-2c-0.3-0.4-0.6-0.7-1-0.9c-1.9-1.1-7.1-0.9-9.1,0.4 c-0.3,0.2-0.6,0.6-1,1c-0.7,0.8-1.7,1.9-3.4,2.3l-1.3,0.3l-0.8-1.1c-0.1-0.1-0.2-0.2-0.2-0.2c0,0-0.4,0.2-0.8,0.8l-0.9,1.3 l-1.5-0.5c-1.4-0.5-2.3-0.2-3.9,0.2c-0.5,0.1-1,0.3-1.5,0.4c-1.4,0.3-2.5,0.5-3.6,0.7c-3.7,0.6-4.2,0.7-4.7,5.2 c-0.4,3.1-1.4,5.2-3.2,6.5c-0.4,0.3-0.9,0.5-1.2,0.7c-0.3,0.2-0.6,0.3-0.8,0.5c-0.5,0.4-0.6,1.1-0.6,2.7v0.1 c0.3,1.2,0.3,2.4,0,3.6l-0.2,0.7c0.6,0.7,1.4,1.7,1.4,3.1c0.1,2.2-1,3-1.9,3.5c-0.1,0-0.1,0.1-0.2,0.1c-0.5,0.7-1.2,1-1.5,1.2 c0,0,0,0,0,0c0,0.1-0.1,0.2-0.1,0.4c-0.2,0.7-0.1,1.5-0.1,2.4c0.1,1.4,0.2,2.9-0.5,4.5c-0.2,0.5-0.1,0.7-0.1,0.8 c0.1,0.2,0.6,0.9,3.1,1.5c0.4,0,0.8,0.2,1.2,0.4l11.3,6.6l-7.6-1.7l0,0c0.2,0.8,0.5,1.3,1.1,2.2c0.1,0.2,0.3,0.4,0.5,0.7l0.1,0.1 c0.6,0.9,1.3,1.9,1.8,2.9c0.6,1,0.6,1.8,0.7,2.4c0.1,0,0.2,0.1,0.3,0.2c0.4,0.2,1.4,0.1,2.2-0.3l1.7,3.7c-1.6,0.8-4,1.1-5.8,0.3 c-2.1-1.1-2.6-2.2-2.6-3.6c0-0.3,0-0.3-0.1-0.5c-0.5-0.8-1.1-1.8-1.7-2.7l-0.1-0.1c-0.1-0.2-0.3-0.4-0.4-0.6 c-0.5-0.7-0.9-1.3-1.3-2.2c-1.1-0.2-2.1-0.8-2.9-1.6c-0.7-0.7-1.1-1.6-1.2-2.6c-2.1-0.8-3.4-1.8-4.1-3.1c-0.5-0.9-0.8-2.4,0-4.3 c0.3-0.7,0.3-1.6,0.2-2.7c-0.1-1.1-0.2-2.3,0.2-3.7c0.5-1.8,1.2-2.5,2.3-3c0.1,0,0.1-0.1,0.2-0.1c0.4-0.5,0.8-0.8,1.2-1 c-0.1-0.1-0.3-0.4-0.5-0.6c-0.6-0.6-1.3-1.5-1.5-2.8l-0.2-1.3l1.2-0.8c0-0.4,0-0.7-0.1-1.1l-0.1-0.3l0-0.7c0-1.8,0-4.2,2.2-5.9 c0.5-0.4,1-0.7,1.5-0.9c0.3-0.1,0.6-0.3,0.8-0.4c0.8-0.6,1.3-1.8,1.5-3.7c0.9-7.2,3.5-8,8.1-8.8c1-0.2,2.1-0.3,3.3-0.6 c0.5-0.1,0.9-0.2,1.3-0.4c1.5-0.4,3-0.9,4.9-0.5c1-0.9,2.1-1.4,3.2-1.4c0.8,0,1.5,0.2,2.1,0.6c0.1-0.1,0.2-0.3,0.4-0.4 c0.5-0.5,1.1-1.2,1.9-1.8c3.4-2.1,10.2-2.4,13.4-0.4c0.9,0.5,1.5,1.2,1.9,1.7c0.4,0.4,0.6,0.6,0.7,0.7c0.9-0.1,1.7-0.3,2.5-0.8 l0.4-0.2l0.4,0c2.6-0.3,4.9,0.3,6.8,1.9c1.9,0.9,3.3,2.2,4.4,4l0.3,0.5l0,1.2c0.4,0.2,0.9,0.3,1.6,0.4c1,0.2,2.3,0.4,3.6,1.2 c2.3,1.5,4,3.8,4.5,6.3c0.3,1.6,0.1,3.3-0.7,4.7c0.4,0.6,1,1.1,1.6,1.7c1,1,2.2,2.1,3,3.7c0.6,1.3,1.3,3.4,1.6,4.5 c0.4,1.6,0.5,2.2,0.5,3.4l0,0.2c0,0.8,0.2,1.7,0.4,2.7c0.2,1.2,0.5,2.4,0.5,3.5c0,0.9-0.2,1.6-0.3,2.1c-0.2,0.6-0.2,0.8-0.1,1 c0.1,0.2,0.4,0.5,0.7,0.8c0.7,0.7,1.6,1.7,1.8,3.1c0.3,2.1-0.9,3.6-1.7,4.7c-0.4,0.5-0.8,1-0.9,1.4c-0.1,0.3,0,0.6,0.1,1.2 c0.2,1.1,0.5,2.8-0.9,4.5c-1.3,1.5-2.7,1.9-3.7,2.1c-1,0.2-1.2,0.3-1.5,1.2c0,0.1,0,0.2,0.1,0.3c0.1,0.7,0.4,2.4-1.1,3.7 c-1.2,0.9-2.8,0.9-4.6,0.8c-0.6,0-1.5-0.1-1.8,0c0,0,0,0.1-0.1,0.1c-0.4,0.6-1,1.6-2.8,1.9C180,90.7,179.6,90.8,179.3,90.8z M187.3,84.5L187.3,84.5L187.3,84.5z M119.8,52.7L119.8,52.7L119.8,52.7z"/></g></g></svg>