<svg version="1.1" id="Layer_1" xmlns="http://www.w3.org/2000/svg" xmlns:xlink="http://www.w3.org/1999/xlink" x="0px" y="0px" viewBox="0 0 321 265" style="enable-background:new 0 0 321 265;" xml:space="preserve"><style type="text/css"> .st0{fill:#931118;} .st1{fill:none;stroke:#931118;stroke-width:5;stroke-miterlimit:10;} </style><g><g><path class="st1" d="M196.4,66.5c10.2,0,19.5-6.6,22.9-16.2c3.4-9.7,0.2-20.8-7.8-27.2c-8.1-6.4-19.6-7-28.3-1.4 c-8.6,5.6-12.9,16.3-10.4,26.3c2.4,9.8,11,17.3,21.1,18.4C194.8,66.5,195.6,66.5,196.4,66.5z"/><path class="st1" d="M271.2,127.1c5,0,9.9-2.5,12.8-6.6c3-4.2,3.7-9.7,1.9-14.5c-1.7-4.7-5.7-8.3-10.5-9.7 c-4.9-1.4-10.3-0.2-14.3,3c-3.9,3.2-6,8.3-5.6,13.3c0.4,5,3.3,9.6,7.5,12.2C265.6,126.3,268.4,127.1,271.2,127.1z"/><path class="st1" d="M300.7,177.2c0-1.8,0-3.6-0.1-5.4c-0.1-1.8-0.3-3.6-0.4-5.5c-0.3-3.6-1.2-7.1-2-10.6 c-0.4-1.7-1.1-3.5-1.7-5.2c-0.7-1.7-1.4-3.3-2.3-4.9c-1.7-3.1-3.7-6-6.2-8.5c-1.7-1.7-3.5-3.2-5.4-4.5c-1.5-1.1-3.1-2.1-4.8-2.8 c-1.9-0.9-4-1.4-6.2-1.4c-2.6,0-5.2,0.8-7.4,2c-1.9,1.1-3.6,2.5-5.3,3.9c-1.8,1.4-3.6,2.8-5.4,4.1c-3.4,2.4-7.2,5-11.4,5.7 c0.1-7.4-0.1-14.8-1.3-22c-0.5-3.6-1.1-7.2-2.1-10.7c-0.9-3.4-2-6.8-3.3-10.1c-2.4-6.2-5.6-12.1-9.9-17.3 c-3.8-4.6-8.4-8.7-13.6-11.8c-5.6-3.3-12-5.3-18.6-4.7c-6.4,0.7-11.9,4-16.9,7.8c-7,5.3-12.8,12.1-16.8,19.9 c-4.2-10.5-11.4-20.2-21.3-26c-5.4-3.2-11.8-5.4-18.1-5.5c-6.7-0.1-13.3,2.2-19,5.6c-11.3,6.7-18.8,18.1-22.8,30.4 c-4.1,12.9-4.6,26.8-3.5,40.3c0.1,1.3,0.2,2.6,0.4,4c-3.2-0.8-6.3-2.6-9.1-4.3c-3-1.9-5.9-3.9-8.5-6.3c-2.2-2-4.8-3.4-7.8-3.8 c-2.3-0.3-4.6,0-6.8,0.6c-12,3.7-19.8,15-22.8,26.7c-0.9,3.5-1.6,7-1.9,10.7c-0.3,3.7-0.4,7.3-0.4,11c0,1.4,0.2,2.6,1.2,3.7 c0.8,1,2.1,1.6,3.3,1.6c2.6,0.1,4.6-2,4.8-4.5c0.3-3.1,0.6-6.2,1.2-9.3c0.6-3.2,1.4-6.3,2.5-9.3c-0.3,5.6-0.6,11.2-0.9,16.7 c0,0.7-0.1,1.4-0.1,2.1c-0.1,1.5,0,3,0.3,4.4c0.2,0.8,0.4,1.6,0.6,2.3c0.1,0.4,0.3,0.8,0.4,1.1c0.1,0.3,0.5,0.8,0.5,1.1 c0.1,1,0.1,2,0.2,3c0.3,5.9,0.6,11.9,0.9,17.8c0.4,7.1,0.7,14.2,1.1,21.3c0.1,2.5,0.3,4.9,0.4,7.4c0.1,1.1,0,2.2,0.2,3.3 c0.4,2.5,2.7,4.5,5.2,4.5c2.6,0.1,4.9-1.9,5.4-4.4c0.3-1.3,0.2-2.7,0.3-4c0.3-6.5,0.6-13,0.9-19.5c0.3-5.7,0.6-11.4,0.8-17.1 c0-0.4,0-0.7,0.1-1.1c0.2,4.1,0.4,8.2,0.6,12.4c0.4,7.1,0.7,14.2,1.1,21.2c0.1,2.2,0.2,4.3,0.3,6.5c0,0.4,0,0.7,0.1,1.1 c0.2,2.5,2.3,4.7,4.8,5c2.6,0.3,5.1-1.4,5.8-3.9c0.2-0.6,0.2-1.2,0.2-1.8c0.1-1.7,0.2-3.4,0.2-5.1c0.3-6.6,0.6-13.2,1-19.8 c0.3-6.7,0.6-13.4,1-20c0.1-1.8,0.2-3.6,0.3-5.4c0-0.4,0-0.7,0.2-1c1.5-2.8,2.2-6,2-9.1c-0.3-5.2-0.6-10.3-0.8-15.5 c-0.2-4.2-0.5-8.3-0.7-12.5c3.2,1.3,6.6,2.4,10,2.7c1.7,0.2,3.5,0.2,5.2-0.2c0.8-0.2,1.6-0.4,2.4-0.7c0.2-0.1,0.4-0.2,0.6-0.3 c0.2,0,0.3,0,0.5,0.1c0.4,0,0.7,0,1.1,0c2.5-0.2,4.8-1.7,5.9-3.9c0.6-1.2,0.8-2.4,0.8-3.7c-0.1-1.7-0.1-3.4-0.1-5.2 c-0.1-6.8,0.3-13.6,1.5-20.3c1.2-6.7,3.2-13.4,6.5-19.4c-0.5,3.9-0.9,7.8-1.4,11.8c-0.9,7.1-1.7,14.3-2.6,21.4 c-0.3,2.6-0.6,5.2-0.9,7.8c-0.2,1.8-0.5,3.6-0.5,5.4c0,3.2,0.5,6.4,1.5,9.4c0.5,1.5,1.2,3,1.9,4.4c0.4,0.7,0.8,1.3,1.2,2 c0.1,0.2,0.1,0.1,0.1,0.2c0,0.8,0.1,1.6,0.1,2.5c0.2,4.8,0.4,9.5,0.7,14.2c0.3,7.1,0.7,14.1,1,21.2c0.3,7.2,0.7,14.3,1,21.5 c0.2,5.1,0.5,10.2,0.7,15.2c0.1,1.1,0.1,2.1,0.2,3.2c0.2,3.6,2.5,6.8,6,7.8c5.1,1.5,10.4-2.3,10.7-7.6c0-0.9,0.1-1.8,0.1-2.7 c0.2-5.5,0.5-11,0.7-16.5c0.3-7.3,0.7-14.6,1-21.9c0.2-5.3,0.5-10.5,0.7-15.8c0-0.7,0.1-1.4,0.1-2c0.1,3.1,0.3,6.3,0.4,9.4 c0.3,6.9,0.6,13.8,1,20.7c0.3,6.8,0.6,13.6,0.9,20.3c0.1,2.1,0.2,4.3,0.3,6.5c0.1,1.2,0,2.6,0.4,3.8c1.4,5.1,7.4,7.8,12.1,5.2 c2.7-1.5,4.2-4.3,4.3-7.3c0.2-3.5,0.3-6.9,0.5-10.4c0.3-6.5,0.6-13,0.9-19.5c0.3-7.4,0.7-14.8,1-22.1c0.3-6.1,0.6-12.1,0.8-18.2 c0.1-2.6,0.2-5.1,0.4-7.7c0-0.1,0.2-0.4,0.3-0.5c0.2-0.3,0.4-0.6,0.6-1c0.4-0.7,0.8-1.4,1.1-2.2c0.7-1.4,1.2-2.9,1.6-4.4 c0.8-3.1,1.1-6.4,0.9-9.6c-0.1-1.4-0.3-2.7-0.5-4.1c-0.8-6.3-1.5-12.7-2.3-19c-0.7-6.1-1.5-12.3-2.2-18.4 c-0.1-0.8-0.2-1.6-0.3-2.4c3.1,5.8,5.1,12.1,6.2,18.5c1.2,6.5,1.6,13.2,1.5,19.8c0,1.8,0,3.6,0,5.4c0,1.2,0,2.3,0.4,3.4 c0.9,2.4,3,4.2,5.5,4.6c2.5,0.4,5.2-0.6,6.8-2.5c1.9-2.3,1.8-5.2,2-8c0.4-5.4,1.3-10.7,2.5-16c1.2-5.2,2.7-10.3,5-15.1 c0,1.4,0,2.7,0,4.1c0,0.5,0.1,1.1,0,1.7c-0.2,1.1-0.5,2.2-0.7,3.4c-1.1,5.5-2.3,10.9-3.4,16.4c-1.5,7.2-3,14.4-4.5,21.6 c-1.2,5.8-2.4,11.6-3.6,17.5c-0.3,1.4-0.6,2.9-0.9,4.3c-0.1,0.4-0.2,0.7-0.2,1.1c-0.2,2.7,2,5.1,4.7,5.1c2.9,0,8.7,0,8.7,0l1.4,0 c0,0,0,0.9,0.1,1.3c0.2,5.1,0.5,10.3,0.7,15.4c0.4,7.3,0.7,14.6,1.1,21.8c0.2,4.8,0.5,9.7,0.7,14.5c0,0.3,0,0.6,0,0.9 c0.1,2.3,1.2,4.5,3,6c2,1.7,4.6,2.4,7.2,1.9c2.5-0.5,4.6-2.2,5.8-4.4c0.8-1.6,0.9-3.3,1-5.1c0.1-2.1,0.2-4.3,0.3-6.4 c0.4-6.9,0.7-13.8,1.1-20.6c0.3-6.5,0.7-13,1-19.6c0.1-1.7,0.2-3.4,0.3-5.1c0-0.3-0.1-0.6,0.2-0.6c0.8,0,0.7-0.1,0.8,0.5 c0.2,4.5,0.4,9,0.7,13.5c0.3,7.3,0.7,14.5,1.1,21.8c0.3,5.4,0.5,10.9,0.8,16.3c0.1,1.6,0.1,3.1,0.7,4.6c2,5,8.3,6.9,12.7,3.7 c2.1-1.5,3.4-3.9,3.5-6.4c0-0.2,0-0.5,0-0.7c0.1-1.8,0.2-3.5,0.3-5.3c0.3-6.6,0.7-13.2,1-19.7c0.3-6.8,0.7-13.7,1.1-20.5 c0.1-2.1,0.2-4.2,0.3-6.3c0-0.5,0.1-1.5,0.1-1.5s7,0,9.8,0c2.9,0,5.2-2.7,4.6-5.6c0-0.2-0.1-0.4-0.1-0.6 c-0.8-4.1-1.7-8.1-2.5-12.2c-1.4-6.9-2.8-13.9-4.2-20.8c-1.4-6.7-2.7-13.4-4.1-20c-0.7-3.3-1.4-6.6-2-9.9c-0.1-0.5,0-1,0-1.5 c0-1.1,0-2.2,0-3.3c1.4,3.3,2.4,6.7,3.4,10.1c1,3.5,1.7,7.1,2.3,10.8c0.5,3.6,0.9,7.2,1.2,10.9c0.1,1.3,0.2,2.6,0.7,3.8 c0.5,1.1,1.3,2.1,2.3,2.9c1.4,1,3.1,1.6,4.8,1.4c0.5,0,0.9,0.3,1.3,0.6c0.5,0.3,1,0.5,1.6,0.7c1.1,0.4,2.3,0.6,3.5,0.7 c4.8,0.2,9.6-1.3,13.9-3.2l0,10.5l-4.3,18.3c-1.5,6.2-2.9,12.5-4.4,18.7c-0.3,1.5-1.1,3.4-0.3,4.8c0.9,1.7,2.7,1.5,4.3,1.5 c1.7,0,3.4,0,5,0c0.1,0,0.7,0,0.7,0c0,0.1,0,0.3,0,0.4c0,0.8,0.1,1.5,0.1,2.3c0.1,2.9,0.3,5.9,0.4,8.8c0.3,6.8,0.7,13.6,1,20.4 c0.1,1.5,0,3,0.3,4.5c0.5,2.5,2.8,4.4,5.4,4.4c2.6,0,4.9-2,5.3-4.5c0.2-1.4,0.2-2.9,0.3-4.4c0.2-3.1,0.3-6.3,0.5-9.4 c0.3-6.6,0.7-13.2,1-19.8c0-0.8,0.1-1.5,0.1-2.3c0-0.1,0-0.3,0-0.4c0,0,0.5-0.1,0.6,0.1c0.1,1.6,0.2,3.3,0.2,4.9 c0.3,6.9,0.7,13.9,1,20.8c0.1,2.7,0.3,5.3,0.4,8c0,0.6,0.1,1.1,0.1,1.7c0.1,1.9,1.1,3.6,2.7,4.5c2.3,1.3,5.2,0.8,6.9-1.2 c0.9-1,1.2-2.2,1.3-3.5c0.1-2,0.2-3.9,0.3-5.9c0.4-7,0.7-14,1.1-21.1c0.1-2.4,0.2-4.8,0.4-7.2c0-0.1,0-1.1,0.1-1.1 c1.3,0,2.7,0,4,0c1.4,0,3.2,0.3,4.4-0.5c1.1-0.8,1.4-2.1,1.2-3.4c-0.4-1.8-0.8-3.6-1.2-5.4c-1.5-6.8-3-13.6-4.5-20.4 c-1-4.5-3.1-13.7-3.1-13.7l0-3.5c3,6.6,3.8,13.9,4.5,21c0.1,1.2,0.4,2.3,1.2,3.2c0.8,0.9,2.1,1.5,3.3,1.6 c2.6,0.1,4.8-2.1,4.8-4.7C300.7,178.4,300.7,177.8,300.7,177.2z"/><path class="st1" d="M47.4,127.1c5,0,9.9-2.5,12.8-6.6c3-4.2,3.7-9.7,1.9-14.5c-1.7-4.7-5.7-8.3-10.5-9.7 c-4.9-1.4-10.3-0.2-14.3,3c-3.9,3.2-6,8.3-5.6,13.3c0.4,5,3.3,9.6,7.5,12.2C41.8,126.3,44.6,127.1,47.4,127.1z"/><path class="st1" d="M120,62.3c10.2,0,19.5-6.7,22.8-16.3c3.3-9.8-0.1-20.8-8.4-27c-8.3-6.2-19.9-6.3-28.3-0.4 c-8.4,6-12.1,16.9-9,26.8c3,9.7,12.2,16.6,22.3,16.9C119.6,62.3,119.8,62.3,120,62.3z"/></g></g></svg>