<svg version="1.1" id="Layer_1" xmlns="http://www.w3.org/2000/svg" xmlns:xlink="http://www.w3.org/1999/xlink" x="0px" y="0px" viewBox="0 0 5000 5000" style="enable-background:new 0 0 5000 5000;" xml:space="preserve"><style type="text/css"> .st0{fill:#DA4643;} .st1{fill:#996133;} .st2{fill:#A16A38;} .st3{fill:#5B5D5D;} .st4{fill:#5A879E;} .st5{fill:#456B77;} .st6{fill:#537B8E;} .st7{fill:#942020;} .st8{fill:none;} .st9{fill:#F16328;} .st10{fill:#F7F8F9;} .st11{fill:#E5E5E4;} .st12{fill:#084869;} .st13{fill:#4BC3D0;} .st14{fill:#1B626D;} .st15{fill:#FFFFFF;} .st16{fill:#2C4955;} .st17{fill:#333237;} .st18{fill:#B3B2B3;} .st19{fill:#292728;} .st20{fill:#305056;} .st21{fill:#353535;} .st22{fill:#1D1510;} .st23{fill:#E87B7A;} .st24{fill:#915831;} </style><g><ellipse transform="matrix(0.7071 -0.7071 0.7071 0.7071 -910.003 2613.8923)" class="st0" cx="2700.2" cy="2405.4" rx="2142.8" ry="2142.8"/><path d="M3184,2453.1c-92-126.4-249.7-190.5-468.8-190.5c-248.2,0-423.1,66-519.6,196.1c-0.1,0.1-0.1,0.2-0.2,0.2 c18.8-5.2,56.2-17.4,102.2-41.9c94.1-73.3,234.1-110.5,417.6-110.5c160.1,0,284.2,35.6,370.5,106.1 c30.4,15.2,75.7,33.7,100.6,43.6C3185.5,2455.3,3184.7,2454.2,3184,2453.1z"/><g><path class="st1" d="M2926.4,2148.7h-454.4v107.4h-1.5c-16.3,36.3-38.4,69.3-64.9,98.3c76.6-22,450.3-131.2,520.8-184.6V2148.7z" /><path class="st2" d="M2926.4,2292.3v-122.5c-70.6,53.4-444.2,162.5-520.8,184.6c-30.2,32.9-66.3,60.5-106.6,80.8 c44.4,63.4,103.8,115.5,173,151.2v99.9h0.6v6.8h431.9v-6.8h21.9v-109.5c62.2-35.5,115.6-84.5,156.4-143.1 C3018,2402.6,2963.7,2353.3,2926.4,2292.3z"/></g><g><g><polygon class="st3" points="2574.4,2656.2 2624.1,2735.1 2700.1,2738.1 2700.1,2583.4 2594.9,2597.8 "/><polygon class="st3" points="2805.3,2597.8 2700.1,2583.4 2700.1,2738.1 2776.1,2735.1 2825.8,2656.2 "/></g></g><polygon class="st4" points="2699.8,2537.2 2576.3,2537.2 2414.7,2758.3 2394.2,3086.2 2699.8,4147.4 "/><polygon class="st5" points="2595.3,2537.2 2446.5,2773.7 2390.1,2748.5 "/><polygon class="st6" points="2369.2,2328 2595.3,2537.2 2414.7,2758.3 2313.3,2477 "/><polygon class="st7" points="2595.3,2537.2 2699.8,2537.2 2699.8,4096.7 2517.7,3612.7 2668.2,2692.4 2595.3,2603.7 "/><polygon class="st4" points="2699.8,2537.2 2823.4,2537.2 2985,2758.3 3005.8,3100.4 2699.8,4137.2 "/><polygon class="st7" points="2802.5,2537.2 2698,2537.2 2698,4096.7 2880.1,3612.7 2729.7,2692.4 2802.5,2603.7 "/><polygon class="st5" points="2804.4,2537.2 2953.2,2773.7 3009.6,2748.5 "/><polygon class="st6" points="3030.5,2328 2804.4,2537.2 2985,2758.3 3086.4,2477 "/><g><g><path class="st8" d="M819.4,3432.7c-54.7-99.9-101.7-204.7-140.1-313.5l38.7,331.4L819.4,3432.7z"/><path class="st9" d="M2691,4094.5c0.1,0,0.1,0,0.2,0v0C2691.1,4094.5,2691,4094.5,2691,4094.5z"/><path class="st10" d="M670.4,3043.1c-4.7-40.7-21.5-77-46.4-105.8c15.8,61.8,34.2,122.5,55.2,181.9L670.4,3043.1z"/><path class="st10" d="M3519.7,3672.3c-12.5-216-17.3-424.1-17.9-610.3l-0.2-0.5l0.2-0.7c0-0.4,0-0.9,0-1.3l0.3,0.2l148.7-551.3 c-36.2-36.4-151.5-34.4-151.5-34.4h-224v-0.1c-56.6-2.8-110-17.5-157.9-41.6c-0.3,0.4-0.6,0.8-0.9,1.2l23.3,13.7l94.3,386.6 l-129.3,32.3l86.2,161.7l-438.7,867.8l-37.6,107.3v545.1c287.5-1.9,561.5-60.4,811.5-164.9l-11-730.7L3519.7,3672.3z"/></g><path class="st8" d="M2691,4094.5c0.1,0,0.1,0,0.2,0v0C2691.1,4094.5,2691,4094.5,2691,4094.5z"/><polygon class="st11" points="2714.8,4003 2714.8,3997.5 2696.8,3997.5 2696.8,4005.7 2706,4028 "/><g><path class="st11" d="M2706,4028l-9.3-22.3v542.5c1.2,0,2.3,0,3.5,0c4.8,0,9.7-0.1,14.5-0.1V4003L2706,4028z"/></g></g><g><path class="st8" d="M3501.9,3060.8l0.3-1.2l-0.3-0.2C3501.8,3059.9,3501.9,3060.4,3501.9,3060.8z"/><path class="st8" d="M2691.1,4094.5L2691.1,4094.5c-0.1,0-0.1,0-0.2,0C2691,4094.5,2691.1,4094.5,2691.1,4094.5z"/><path class="st12" d="M3501.9,3062c0-0.4,0-0.8,0-1.1l-0.2,0.7L3501.9,3062z"/><g><path class="st13" d="M2691.1,4094.5L2691.1,4094.5c-0.1,0-0.1,0-0.2,0C2691,4094.5,2691.1,4094.5,2691.1,4094.5z"/><path class="st10" d="M2629,3842.3l-67.2-98.8L2200,3027.9l86.2-161.7l-129.3-32.3l94.3-386.6l23.3-13.7 c-0.3-0.4-0.6-0.8-0.9-1.2c-47.8,24.1-101.3,38.8-157.9,41.6v0.1h-198.3c0,0.4,0.1,0.8,0.1,1.2c-1.3,0-2.5-0.1-3.8-0.1 c-130,0-235.4,105.4-235.4,235.4c0,19.2,2.4,37.9,6.7,55.7l-295,566l-570.6,100.5L718,3450.6l-38.7-331.4 c-21-59.5-39.5-120.2-55.2-181.9c-34-39.6-83.2-65.2-137.3-68.7c-11.7-0.7-23.7-0.5-35.8,0.9 c-108.5,12.7-186.2,110.9-173.6,219.5l71.9,615.8c6.3,54.1,34.7,103.2,78.4,135.7c34.4,25.6,84.2-16.2,126.5-16.2 c11.4,0,22.9-1,34.3-3l321.2-85.5l115.5-20.8l529.6-10c60.6-10.7,112.7-48.9,141.1-103.4l218-418.2c-1.4,28-2.8,54.5-4.1,79.3 l-0.1,23.2l-16.8,564l-7.2,242.5l-7.2,292.6c252.1,104.8,528.5,162.8,818.4,163.3v-542.5L2629,3842.3z M2691.1,4094.5 c-0.1,0-0.1,0-0.2,0C2691,4094.5,2691.1,4094.5,2691.1,4094.5L2691.1,4094.5z"/></g></g><polygon class="st11" points="2705.8,4028.4 2367.4,2533.5 2336.5,2396.9 2274.5,2433.5 2251.2,2447.3 2156.9,2833.9 2286.3,2866.2 2200,3027.9 "/><polygon class="st11" points="3244.6,2833.9 3150.3,2447.3 3149.3,2446.6 3062.8,2400.4 3039.4,2513.3 2705.8,4028.4 3201.5,3027.9 3115.2,2866.2 "/><polygon class="st14" points="1936.2,3571.2 377.6,3885.9 -20.9,1911.7 1537.6,1597 "/><rect x="246.3" y="1840.4" transform="matrix(0.9802 -0.1979 0.1979 0.9802 -523.5906 243.7362)" class="st15" width="1422.7" height="1802"/><g><polygon class="st16" points="416.8,2515.4 312.9,2536.4 291.9,2432.5 395.8,2411.5 "/><rect x="501.3" y="2302.4" transform="matrix(0.9802 -0.1979 0.1979 0.9802 -447.5223 232.8894)" class="st16" width="880.2" height="106"/></g><g><rect x="341.2" y="2618.3" transform="matrix(0.9802 -0.1979 0.1979 0.9802 -520.9725 130.8784)" class="st16" width="106" height="106"/><rect x="542.2" y="2510.8" transform="matrix(0.9802 -0.1979 0.1979 0.9802 -489.0406 234.1327)" class="st16" width="769.3" height="106"/></g><g><rect x="381" y="2815.7" transform="matrix(0.9802 -0.1979 0.1979 0.9802 -559.2165 142.6625)" class="st16" width="106" height="106"/><polygon class="st16" points="1282.5,2751.4 600.2,2889.2 579.2,2785.3 1261.6,2647.6 "/></g><g><rect x="420.9" y="3013.1" transform="matrix(0.9802 -0.1979 0.1979 0.9802 -597.4315 154.4309)" class="st16" width="106" height="106"/><rect x="620.6" y="2892.3" transform="matrix(0.9802 -0.1979 0.1979 0.9802 -561.6566 270.3867)" class="st16" width="902.8" height="106"/></g><g><polygon class="st16" points="576.2,3304.9 472.3,3325.9 451.3,3222 555.2,3201 "/><rect x="660.5" y="3089.7" transform="matrix(0.9802 -0.1979 0.1979 0.9802 -599.9328 282.179)" class="st16" width="902.8" height="106"/></g><g><g><path class="st2" d="M33.9,2828.9c3.9,0,7.8-0.3,11.7-0.8l227.4-32.5c44.9-6.4,76-48,69.6-92.8c-6.4-44.8-47.9-76-92.8-69.6 l-227.4,32.5c-44.8,6.4-76,48-69.6,92.8C-41.4,2799.3-6.3,2828.9,33.9,2828.9z"/></g></g><g><g><path class="st2" d="M22.2,3006.8l222.8-27.8c45-5.6,76.8-46.6,71.2-91.6c-5.6-45-46.6-76.8-91.6-71.2L1.9,2844 c-45,5.6-76.8,46.6-71.2,91.6c5.2,41.5,40.5,71.9,81.3,71.9C15.3,3007.4,18.8,3007.2,22.2,3006.8z"/></g></g><g><g><path class="st2" d="M292.5,3141.1c44.5-8.4,73.9-51.2,65.5-95.8c-8.4-44.5-51.2-73.9-95.8-65.5l-222.8,41.8 c-44.5,8.4-73.9,51.2-65.5,95.7c7.4,39.4,41.8,66.9,80.5,66.9c5,0,10.1-0.5,15.2-1.4L292.5,3141.1z"/></g></g><g><g><path class="st2" d="M399.9,3206.1c-6.7-40-44.5-67.1-84.5-60.4l-199.5,33.3c-40,6.7-67.1,44.5-60.4,84.6 c6,35.9,37.1,61.4,72.4,61.4c4,0,8.1-0.3,12.2-1l199.5-33.3C379.5,3284,406.6,3246.1,399.9,3206.1z"/></g></g><path class="st10" d="M3751.6,2621.1c55.8,118.1,21.4,251.3-76.6,297.6c-98.1,46.3-222.8-11.8-278.5-129.9 c-55.8-118.1-21.4-251.3,76.6-297.6C3571.2,2444.9,3695.9,2503.1,3751.6,2621.1z"/><path class="st17" d="M2696,3661c0,15.1-12.2,27.3-27.3,27.3c-15.1,0-27.3-12.2-27.3-27.3c0-15.1,12.2-27.3,27.3-27.3 C2683.8,3633.7,2696,3646,2696,3661z"/><path class="st17" d="M2779,3669.2c0,15.1-12.2,27.3-27.3,27.3c-15.1,0-27.3-12.2-27.3-27.3c0-15.1,12.2-27.3,27.3-27.3 C2766.8,3641.9,2779,3654.2,2779,3669.2z"/><g><path class="st11" d="M3508.9,3705.5c-117.3-81.8-358.7-123-577-134.7l-106.3,216.9l690.8,32.5L3508.9,3705.5z"/></g><g><path d="M2112.8,2744.3c1.6,83.1,19.6,143.6,20.4,146.1l42.1-12.7c-0.7-2.3-66.7-228.3,55.8-393c18.8-25.2,40.9-47.8,66.5-67.6 c-45.9,24.5-83.3,36.7-102.2,41.9C2139.2,2534.8,2110.6,2633.4,2112.8,2744.3z"/><polygon points="3194.7,3025.7 3215.6,3032.5 3194.7,3025.7 "/></g><path d="M3186.2,2456.3c-24.9-9.9-70.2-28.5-100.6-43.6c23.8,19.4,44.7,41.5,62.7,66.2c79.2,108.7,87.8,250.8,81.1,350.8 c-7.4,110.1-34.4,195-34.7,196l20.9,6.8l20.9,6.8c1.2-3.6,28.8-90.2,36.7-205.5C3283.6,2681.2,3253.6,2550.8,3186.2,2456.3z"/><g><ellipse transform="matrix(0.7071 -0.7071 0.7071 0.7071 -1201.2352 3164.7317)" class="st11" cx="3219.6" cy="3032.4" rx="134" ry="134"/><path d="M3219.6,3176.1c-79.2,0-143.7-64.4-143.7-143.7c0-79.2,64.4-143.7,143.7-143.7c79.2,0,143.7,64.4,143.7,143.7 C3363.2,3111.6,3298.8,3176.1,3219.6,3176.1z M3219.6,2908c-68.6,0-124.4,55.8-124.4,124.4c0,68.6,55.8,124.4,124.4,124.4 c68.6,0,124.4-55.8,124.4-124.4C3344,2963.8,3288.2,2908,3219.6,2908z"/></g><path class="st18" d="M3316.5,3032.4c0,53.5-43.4,96.9-96.9,96.9c-53.5,0-96.9-43.4-96.9-96.9c0-53.5,43.4-96.9,96.9-96.9 C3273.1,2935.5,3316.5,2978.9,3316.5,3032.4z"/><g><path class="st18" d="M2162.1,3757.1c-106.9-5.7-119.5-74.3-120-77.2l-71.8-429.3l32.6-5.5l71.8,429.3c0.3,1.6,10,45.5,89.2,49.7 L2162.1,3757.1z"/><path class="st18" d="M2409.5,3694.8c99.2-40.1,88.9-109.2,88.4-112.1l-71.8-429.3l-32.6,5.5l71.8,429.3 c0.2,1.6,5.3,46.3-68.2,76L2409.5,3694.8z"/><path class="st19" d="M2190.1,3704.4c31.4,6.2,53.6,27.8,49.5,48.1c-4,20.3-32.8,31.7-64.1,25.5c-31.4-6.2-53.6-27.8-49.5-48.1 C2130,3709.5,2158.7,3698.1,2190.1,3704.4z"/><path class="st19" d="M2365.7,3675c-27.6,16.1-41.6,43.7-31.2,61.6c10.4,17.9,41.3,19.3,69,3.2c27.6-16.1,41.6-43.7,31.2-61.6 C2424.2,3660.4,2393.3,3658.9,2365.7,3675z"/><path class="st19" d="M1961.3,3262.5c-0.6-3.8-15.4-94.2-3.4-190.7c16.8-135,78.1-215.1,177.3-231.7 c235.1-39.3,298.8,324.8,301.4,340.3l-48.9,8.2c-0.6-3.3-57.9-330.8-244.3-299.6c-76.4,12.8-122.2,76.3-136.2,188.9 c-11.1,89.4,3,175.5,3.1,176.4L1961.3,3262.5z"/></g><path class="st0" d="M775.9,1981c-85.5,16-141.8,98.3-125.8,183.8c16,85.5,98.3,141.8,183.8,125.8c85.5-16,141.8-98.3,125.8-183.8 C943.7,2021.3,861.4,1964.9,775.9,1981z M913.6,2147.6l-71.7,13.4l13.4,71.6l-62.3,11.7l-13.4-71.6l-71.6,13.4l-11.7-62.3 l71.6-13.4l-13.4-71.6l62.3-11.7l13.4,71.6l71.7-13.4L913.6,2147.6z"/><g><g><path class="st20" d="M1034.1,1644.6L750,1710.9L462.4,1760c0,0,32.8,91,3.5,187.6l307.7-62.1l22.3-4.5l312.7-63.1 C1044.1,1740.2,1034.1,1644.6,1034.1,1644.6z"/><path class="st16" d="M1111.9,1810.7c3.7,18.4-8.2,36.4-26.6,40.1l-590.8,119.3c-18.4,3.7-36.4-8.2-40.1-26.6l0,0 c-3.7-18.4,8.2-36.4,26.7-40.1l590.8-119.3C1090.3,1780.3,1108.2,1792.3,1111.9,1810.7L1111.9,1810.7z"/><path class="st16" d="M1045.5,1645.5c3.4,16.6-7.4,32.9-24.1,36.2l-533.7,107.8c-16.6,3.4-32.9-7.4-36.2-24l0,0 c-3.4-16.7,7.4-32.9,24.1-36.2l533.7-107.8C1025.9,1618.1,1042.1,1628.9,1045.5,1645.5L1045.5,1645.5z"/></g><g><path class="st16" d="M909.6,1627.7c-19.2-94.9-111.6-156.3-206.5-137.1c-94.9,19.2-156.3,111.6-137.1,206.5l10.2,50.7 l343.6-69.4L909.6,1627.7z M740,1673.5c-36.9,7.4-72.8-16.4-80.2-53.2c-7.4-36.9,16.4-72.8,53.3-80.2 c36.8-7.4,72.8,16.4,80.2,53.3C800.7,1630.1,776.9,1666,740,1673.5z"/></g></g><path class="st2" d="M2416.8,3265.7c0,0,24.5,27.5,91.5,45.8l-20.3,367.6c0,0-60.9-11.9-119.8,14.5L2416.8,3265.7z"/><g><g><g><g><path class="st15" d="M2643.4,3261.3l-142.1-6.9c-19.7-1-36.4,14.2-37.4,33.9l-9.1,186.8l-9.1,186.8 c-1,19.7,14.2,36.4,33.9,37.4l142.1,6.9c19.7,1,36.4-14.2,37.3-33.9l9.1-186.8l9.1-186.8 C2678.2,3278.9,2663,3262.2,2643.4,3261.3z"/><g><g><g><g><path class="st2" d="M1948.2,3630.5c1.5-30.3,26.7-53.5,56.5-54.1c0-0.3-0.1-0.6-0.2-0.8l-53.5-2.6 c-31.6-1.5-56.2-28.6-54.7-60.3c1.5-31.5,28.7-56.2,60.3-54.7l-57.5-2.8c-31.6-1.5-56.3-28.6-54.7-60.3 c1.5-31.6,28.7-56.2,60.3-54.7l-230-11.2c-31.6-1.5-56.2-28.6-54.7-60.3c1.5-31.6,28.7-56.2,60.3-54.7l36.7,1.8l308.3,15 l41.6,2c7,0.3,13.6-5.8,15.9-12.4c2.4-6.6,0.2-14.8-5.5-19c-53.1-45-107.8-45-104.8-106c0.7-14.2,8.8-26.9,21.3-33.5 c12.6-6.5,27.6-6,39.7,1.5l379,199c8.9,5.5,14,15.4,13.5,25.9c-2.4,50.3-11.1,227.7-16.3,335.9 c-2.3,47.6-42.7,84.4-90.4,82.1c-154.1-7.5-316.2-15.4-316.2-15.4C1971.3,3689.2,1946.6,3662.1,1948.2,3630.5z"/></g></g></g></g></g></g></g></g><path class="st10" d="M3862.8,3798c-3.5,0-6.9-0.1-10.4-0.2L2512.8,3742l20.8-498.4l1018.3,80.3l-219.2-519l428.1-163.1 l323.6,792.5c40.8,79,36.5,173.7-11.3,248.6C4027.1,3754.7,3947.7,3798,3862.8,3798z"/><g><path class="st8" d="M2536.5,1908.9c0,35.7,28.9,64.6,64.6,64.6h103.3v-129.2h-103.3C2565.4,1844.3,2536.5,1873.3,2536.5,1908.9z "/><path class="st8" d="M2805.9,1973.5c35.7,0,64.6-28.9,64.6-64.6c0-35.7-28.9-64.6-64.6-64.6h-101.5v129.2H2805.9z"/></g><g><ellipse transform="matrix(0.7071 -0.7071 0.7071 0.7071 -8.7049 2218.3479)" class="st21" cx="2673.4" cy="1119.7" rx="742.4" ry="742.4"/><g><path class="st8" d="M2842.9,1928.2c0,33.9-27.5,61.4-61.4,61.4h-98.2v-122.8h98.2C2815.4,1866.8,2842.9,1894.3,2842.9,1928.2z" /><path class="st8" d="M2586.8,1989.6c-33.9,0-61.4-27.5-61.4-61.4c0-33.9,27.5-61.4,61.4-61.4h96.5v122.8H2586.8z"/></g><path class="st1" d="M3207.2,1541.2c-12.7,87.5,11.8,163.6,54.7,169.9c43,6.4,88.1-59.5,100.9-147 c12.7-87.5-11.8-163.6-54.7-169.9C3265.1,1387.8,3220,1453.6,3207.2,1541.2z"/><path class="st2" d="M2136.4,1534.1c8.4,86.4-16.9,159.6-56.3,163.4c-39.4,3.9-78.1-63.1-86.5-149.5 c-8.3-86.4,16.9-159.6,56.3-163.4C2089.4,1380.7,2128.1,1447.6,2136.4,1534.1z"/><g><path class="st2" d="M2668.8,883.9c-521.3-14-579.7,201.9-579.7,609.7c0,413.6,258.4,749.7,579.7,758.9c4.6,0.1,9,0.4,13.5,0.4 c0,0,0,0,0,0V883.6C2677.9,883.7,2673.3,884,2668.8,883.9z"/><path class="st1" d="M3275.7,1493.5c0-419.3-252.1-610.2-579.8-610.2c-4.5,0-9,0.2-13.4,0.2v1369.3 C3010.1,2252.9,3275.7,1912.9,3275.7,1493.5z"/></g><g><path class="st8" d="M2523.8,1946c0,33.7,27.3,61,61,61h97.6V1885h-97.6C2551.1,1885,2523.8,1912.3,2523.8,1946z"/><path class="st8" d="M2778.3,2007c33.7,0,61-27.3,61-61c0-33.7-27.3-61-61-61h-95.9V2007H2778.3z"/></g><path class="st21" d="M2086.7,1541c0,0-59.9-435.5-14.6-482.7c45.2-47.1,69.7-32,69.7-32s-56.6-86.7-37.7-126.3 C2123,860.4,2287,579.5,2779,641.7c492,62.2,518.4,518.4,518.4,518.4s-13.2,356.3-28.3,422.2l-26.4-3.8l-52.8-433.6 c0,0-60.3-229-243.2-291.3c-182.8-62.2-405.3-124.7-742.7,75.1c0,0-52.8,170.9-54.7,201.1c-1.9,30.2-56.5,354.4-33.9,439.2 L2086.7,1541z"/><path class="st21" d="M2207.7,1349.3c-8.7,0-17.1-4.9-21.2-13.2c-5.7-11.7-0.9-25.9,10.8-31.6c1.6-0.8,39.3-19,102-29.6 c57.2-9.7,147.7-14.8,253.4,16.1c12.5,3.7,19.7,16.8,16,29.3c-3.7,12.5-16.8,19.7-29.3,16c-185.5-54.2-320.1,10-321.4,10.6 C2214.7,1348.6,2211.2,1349.3,2207.7,1349.3z"/><path class="st21" d="M3107.8,1349.3c-3.5,0-7-0.8-10.3-2.4c-0.8-0.4-34.9-16.5-91.1-25.8c-52-8.6-134.1-13-230.4,15.2 c-12.5,3.7-25.6-3.5-29.3-16c-3.7-12.5,3.5-25.6,16-29.3c105.8-30.9,196.2-25.8,253.4-16.1c62.7,10.6,100.4,28.9,102,29.6 c11.7,5.7,16.6,19.9,10.8,31.6C3124.9,1344.5,3116.5,1349.3,3107.8,1349.3z"/><path class="st15" d="M2506.2,1467.5c0,0-54.4,51.7-121.4,51.7c-67.1,0-121.4-51.7-121.4-51.7s54.4-51.7,121.4-51.7 C2451.8,1415.7,2506.2,1467.5,2506.2,1467.5z"/><path class="st15" d="M3103.9,1467.5c0,0-54.4,51.7-121.4,51.7c-67,0-121.4-51.7-121.4-51.7s54.4-51.7,121.4-51.7 C3049.5,1415.7,3103.9,1467.5,3103.9,1467.5z"/><g><path class="st22" d="M2436.3,1468.9c0,27.5-22.3,49.9-49.9,49.9c-27.5,0-49.9-22.3-49.9-49.9c0-27.5,22.3-49.9,49.9-49.9 C2414,1419.1,2436.3,1441.4,2436.3,1468.9z"/><path class="st15" d="M2414.8,1455.6c0,9.2-7.5,16.7-16.7,16.7c-9.2,0-16.7-7.5-16.7-16.7c0-9.2,7.5-16.7,16.7-16.7 C2407.3,1438.9,2414.8,1446.4,2414.8,1455.6z"/></g><g><path class="st22" d="M3028.5,1468.9c0,27.5-22.3,49.9-49.9,49.9c-27.5,0-49.9-22.3-49.9-49.9c0-27.5,22.3-49.9,49.9-49.9 C3006.1,1419.1,3028.5,1441.4,3028.5,1468.9z"/><path class="st15" d="M3007,1455.6c0,9.2-7.5,16.7-16.7,16.7s-16.7-7.5-16.7-16.7c0-9.2,7.5-16.7,16.7-16.7 S3007,1446.4,3007,1455.6z"/></g><path class="st21" d="M3251.1,1539.4c-81.8,271.8-231.5,340.7-299.9,358.1c-5-14.9-26-66.8-113.6-87.5 c-36.8-10.7-79.6-18.5-112.1-18.5c-9.4-0.3-19.2-0.4-29.4-0.4h-35.9c-10.3,0-20.1,0.1-29.6,0.4c-31.8,0.1-73.3,7.9-109.3,18 c-89.6,20.5-111.1,72.9-116.1,88c-68.6-17.6-217.8-86.8-299.5-358l-24.7-11.7c0,0,44.9,744.8,594.7,751.4v0.2 c0,0,1.9-0.1,3.2-0.1c0.3,0,0,0,0.2,0c0.9,0,2.2,0.1,2.2,0.1v-0.2c548.4-6.6,594.6-751.4,594.6-751.4L3251.1,1539.4z"/><g><g><g><path class="st23" d="M2516.5,1934.6c0,0,1.7,7,5.7,17.5c9.1,23.5,30.1,65.8,71.8,94.4c22.3,15.4,50.6,26.9,86.1,29.6 c35.5-2.6,63.8-14.1,86.1-29.5c41.7-28.7,62.8-71.1,71.8-94.5c4.1-10.6,5.7-17.5,5.7-17.5H2516.5z"/><path class="st1" d="M2680.2,2088.7c-0.3,0-0.6,0-0.9,0c-34.4-2.5-65.5-13.2-92.3-31.7c-44.7-30.8-67-75.9-76.4-100.1 c-4.3-11.2-6.1-18.6-6.2-18.9c-0.9-3.7-0.1-7.2,2.3-10.2c2.4-3,6-4.3,9.8-4.3h327.3c3.8,0,7.5,1.3,9.8,4.3 c2.4,3,3.2,6.7,2.3,10.5c-0.1,0.3-1.9,7.6-6.2,18.7c-9.3,24.2-31.7,69.3-76.4,100.1c-26.9,18.5-57.9,29.1-92.3,31.6 C2680.8,2088.8,2680.5,2088.7,2680.2,2088.7z M2533.8,1948.5c0,0,0.1-0.3,0.1-0.2c8.3,21.5,28.1,61.4,67.2,88.3 c22.9,15.8,49.5,24.8,79,27.1c29.5-2.3,56.1-11.6,79-27.3c39.2-26.9,58.9-66.6,67.2-88.1c0-0.1,0.1,0.1,0.1,0.1H2533.8z"/></g><path class="st15" d="M2766.3,2046.7h-172.3c22.3,15.4,50.6,26.9,86.1,29.5C2715.7,2073.6,2744,2062.1,2766.3,2046.7z"/></g><g><path class="st15" d="M2516.5,1935c0,0,1.7,6.8,5.7,17.3c1.3,3.3,2.8,7,4.6,10.9h306.7c1.8-3.9,3.3-7.6,4.6-10.9 c4.1-10.6,5.7-17.3,5.7-17.3H2516.5z"/><path class="st23" d="M2526.8,1963.3c10.8,24.1,31.4,58.8,67.2,83.4h172.3c35.8-24.7,56.4-59.3,67.3-83.4H2526.8z"/></g></g><g><g><g><g><g><path class="st1" d="M2667.1,1745c0,24.6-28.8,44.6-64.4,44.6c-35.6,0-64.4-20-64.4-44.6s28.8-44.6,64.4-44.6 C2638.3,1700.4,2667.1,1720.4,2667.1,1745z"/></g><g><path class="st24" d="M2834.2,1745c0,24.6-28.8,44.6-64.4,44.6c-35.6,0-64.4-20-64.4-44.6s28.8-44.6,64.4-44.6 C2805.3,1700.4,2834.2,1720.4,2834.2,1745z"/></g></g></g><g><g><path class="st1" d="M2620,1768.6c0,24.2,27.7,43.8,62.4,44.6v-89.1C2647.8,1724.8,2620,1744.5,2620,1768.6z"/></g><g><path class="st24" d="M2684.4,1724c-0.7,0-1.4,0-2,0v89.1c0.7,0,1.4,0,2,0c35.6,0,64.4-20,64.4-44.6 C2748.8,1744,2720,1724,2684.4,1724z"/></g></g></g></g><g><g><g><g><path class="st2" d="M2667.1,1738.2c0,24.6-28.8,44.6-64.4,44.6c-35.6,0-64.4-20-64.4-44.6c0-24.6,28.8-44.6,64.4-44.6 C2638.3,1693.6,2667.1,1713.6,2667.1,1738.2z"/></g><g><path class="st1" d="M2834.2,1738.2c0,24.6-28.8,44.6-64.4,44.6c-35.6,0-64.4-20-64.4-44.6c0-24.6,28.8-44.6,64.4-44.6 C2805.3,1693.6,2834.2,1713.6,2834.2,1738.2z"/></g></g></g><g><path class="st2" d="M2620,1761.8c0,24.2,27.7,43.8,62.4,44.6v-89.1C2647.8,1718,2620,1737.7,2620,1761.8z"/><path class="st1" d="M2684.4,1717.2c-0.7,0-1.4,0-2,0v89.1c0.7,0,1.4,0,2,0c35.6,0,64.4-20,64.4-44.6 S2720,1717.2,2684.4,1717.2z"/></g></g></g></g></svg>