<svg xmlns="http://www.w3.org/2000/svg" viewBox="225.0 64.0 224.0 224.0"><g><path d="M280.25,132.41c-8.12,0.11-12.62,2.12-16.61,3.5c-4,1.37-7.74,0.87-9.37,2c-1.62,1.12-9.24,6.37-12.62,8.37 c-3.37,2-7.87,4.37-8.12,5.5c-0.25,1.12,4.5,7.62,8.24,10.37c3.75,2.75,20.86,2.5,23.23,3.75c2.37,1.25,11.99,9.24,15.24,14.12 c3.25,4.87,30.48,12.74,36.23,16.61c5.75,3.87,26.36,6.12,37.23-2.25c10.87-8.37,21.36-20.36,21.36-20.36s-0.03-11.73-1.75-15.87 c-2.75-6.62-11.37-21.61-27.73-27.73c-18.35-6.87-43.1,7.25-48.84,6.75C290.99,136.66,283.5,132.37,280.25,132.41z"/><path d="M277.91,121.22c-7.65,3.48-9.22,15.14-9.22,15.14l9.78,0.66c0,0,1.27-7.17,3.48-9.78 C284.68,124.01,283.95,118.47,277.91,121.22z"/><path d="M284.93,131.28c-4.95,0.69-9.72,13.92-9.72,13.92l5.39,9.66c0,0,5.27-2.01,7.15-4.52 C289.64,147.84,289.89,130.59,284.93,131.28z"/><path d="M302.61,175.76l-22.36,4.25c4.37,8.99,6.12,18.68,4.87,20.08c-1.25,1.41-4,11.9-4.87,12.52 c-0.87,0.62-6.87,1.25-7.5,1.87c-0.62,0.62,0,2.5,0,2.5s-2.87,1.25-3,2.37c-0.12,1.12,0.87,2.75,2.25,2.37 c1.37-0.37,8.62-2.75,8.62-2.75s-0.12,3.25,0.37,3.5c0.5,0.25,5.25-3.37,5.25-3.37s-1-3.75,1.37-5.62 c2.37-1.87,12.74-14.62,15.24-16.11c2.5-1.5,17.61-5.12,17.61-5.12L302.61,175.76z"/><path d="M277.47,171.45c0,0-3.85,8.94-6.16,10.93c-2.32,1.98-3.74,2.52-5.31,5.09c-1.56,2.57-3.24,8.58-2.3,8.95 c0.94,0.37,3.7-1.5,3.7-1.5c1.25,0.32,2.41-4.54,3.42-4.8c1.01-0.26,0.37,0.74,1.61,0.93c1.24,0.19,2.44-2.98,3.3-4.83 c0.86-1.84,9.73-9.75,9.73-9.75L277.47,171.45z"/><path d="M375.06,174.01L349.08,186c-0.75,10.62,7.5,15.61,7.12,16.99c-0.37,1.37-5.87,4.12-7.99,4.87 c-2.12,0.75-9.78,2.99-11.04,4.62c-1.25,1.63,1.82,3.14,1.82,3.14s-1.5,2.82-0.12,3.51c1.38,0.69,7.21-2.76,7.21-2.76 s1.32,1.82,2.26,2.01c0.94,0.19,12.48-6.21,14.99-10.79c2.51-4.58,2.32-7.84,5.46-11.73C371.9,191.98,379.16,190.1,375.06,174.01z "/><path d="M384.55,230.9c24.75-6.56,60.37-23.8,56.04-39.05c-2.53-8.91-14.12-16.7-42.08-11.91 c-16.25,2.78-19.83,1.31-23.45-5.93l-3.12,14.86c10.24,2.62,12.25,1.13,27.36-1.48c21.17-3.66,30.14-1.17,34.2,5.08 c5.14,7.92-24.29,25.77-50.34,34.49C376.2,229.3,377.84,232.68,384.55,230.9z"/></g></svg>
